<?xml version="1.0" standalone="yes"?>

<svg version="1.1" viewBox="0.0 0.0 409.0 251.0" fill="none" stroke="none" stroke-linecap="square" stroke-miterlimit="10" xmlns="http://www.w3.org/2000/svg" xmlns:xlink="http://www.w3.org/1999/xlink"><clipPath id="p.0"><path d="m0 0l409.0 0l0 251.0l-409.0 0l0 -251.0z" clip-rule="nonzero"></path></clipPath><g clip-path="url(#p.0)"><path fill="#000000" fill-opacity="0.0" d="m0 0l409.8058 0l0 251.71654l-409.8058 0z" fill-rule="nonzero"></path><path fill="#ffe599" d="m2.3722007 42.639317l0 0c0 -5.8070793 4.707567 -10.514645 10.514646 -10.514645l104.577 0c2.7886581 0 5.4630966 1.1077881 7.4349747 3.07967c1.971878 1.971878 3.0796661 4.6463165 3.0796661 7.4349747l0 42.057323c0 5.8070755 -4.7075653 10.514641 -10.514641 10.514641l-104.577 0c-5.8070784 0 -10.514646 -4.7075653 -10.514646 -10.514641z" fill-rule="nonzero"></path><path stroke="#ffe599" stroke-width="2.0" stroke-linejoin="round" stroke-linecap="butt" d="m2.3722007 42.639317l0 0c0 -5.8070793 4.707567 -10.514645 10.514646 -10.514645l104.577 0c2.7886581 0 5.4630966 1.1077881 7.4349747 3.07967c1.971878 1.971878 3.0796661 4.6463165 3.0796661 7.4349747l0 42.057323c0 5.8070755 -4.7075653 10.514641 -10.514641 10.514641l-104.577 0c-5.8070784 0 -10.514646 -4.7075653 -10.514646 -10.514641z" fill-rule="nonzero"></path><path fill="#000000" fill-opacity="0.0" d="m2.3722007 32.124672l125.60629 0l0 63.08661l-125.60629 0z" fill-rule="nonzero"></path><path fill="#000000" d="m41.17521 59.587975l0 -13.59375l2.71875 0l3.21875 9.625q0.4375 1.34375 0.640625 2.015625q0.234375 -0.75 0.734375 -2.1875l3.25 -9.453125l2.421875 0l0 13.59375l-1.734375 0l0 -11.390625l-3.953125 11.390625l-1.625 0l-3.9375 -11.578125l0 11.578125l-1.734375 0zm14.759552 -4.921875q0 -2.734375 1.53125 -4.0625q1.265625 -1.09375 3.09375 -1.09375q2.03125 0 3.3125 1.34375q1.296875 1.328125 1.296875 3.671875q0 1.90625 -0.578125 3.0q-0.5625 1.078125 -1.65625 1.6875q-1.078125 0.59375 -2.375 0.59375q-2.0625 0 -3.34375 -1.328125q-1.28125 -1.328125 -1.28125 -3.8125zm1.71875 0q0 1.890625 0.828125 2.828125q0.828125 0.9375 2.078125 0.9375q1.25 0 2.0625 -0.9375q0.828125 -0.953125 0.828125 -2.890625q0 -1.828125 -0.828125 -2.765625q-0.828125 -0.9375 -2.0625 -0.9375q-1.25 0 -2.078125 0.9375q-0.828125 0.9375 -0.828125 2.828125zm15.672592 4.921875l0 -1.25q-0.9375 1.46875 -2.75 1.46875q-1.171875 0 -2.171875 -0.640625q-0.984375 -0.65625 -1.53125 -1.8125q-0.53125 -1.171875 -0.53125 -2.6875q0 -1.46875 0.484375 -2.671875q0.5 -1.203125 1.46875 -1.84375q0.984375 -0.640625 2.203125 -0.640625q0.890625 0 1.578125 0.375q0.703125 0.375 1.140625 0.984375l0 -4.875l1.65625 0l0 13.59375l-1.546875 0zm-5.28125 -4.921875q0 1.890625 0.796875 2.828125q0.8125 0.9375 1.890625 0.9375q1.09375 0 1.859375 -0.890625q0.765625 -0.890625 0.765625 -2.734375q0 -2.015625 -0.78125 -2.953125q-0.78125 -0.953125 -1.921875 -0.953125q-1.109375 0 -1.859375 0.90625q-0.75 0.90625 -0.75 2.859375zm16.016342 1.75l1.71875 0.21875q-0.40625 1.5 -1.515625 2.34375q-1.09375 0.828125 -2.8125 0.828125q-2.15625 0 -3.421875 -1.328125q-1.265625 -1.328125 -1.265625 -3.734375q0 -2.484375 1.265625 -3.859375q1.28125 -1.375 3.328125 -1.375q1.984375 0 3.234375 1.34375q1.25 1.34375 1.25 3.796875q0 0.140625 -0.015625 0.4375l-7.34375 0q0.09375 1.625 0.921875 2.484375q0.828125 0.859375 2.0625 0.859375q0.90625 0 1.546875 -0.46875q0.65625 -0.484375 1.046875 -1.546875zm-5.484375 -2.703125l5.5 0q-0.109375 -1.234375 -0.625 -1.859375q-0.796875 -0.96875 -2.078125 -0.96875q-1.140625 0 -1.9375 0.78125q-0.78125 0.765625 -0.859375 2.046875zm9.078842 5.875l0 -13.59375l1.671875 0l0 13.59375l-1.671875 0z" fill-rule="nonzero"></path><path fill="#000000" d="m32.29579 85.587975q-1.375 -1.75 -2.328125 -4.078125q-0.953125 -2.34375 -0.953125 -4.84375q0 -2.21875 0.703125 -4.234375q0.84375 -2.34375 2.578125 -4.671875l1.203125 0q-1.125 1.921875 -1.484375 2.75q-0.5625 1.28125 -0.890625 2.671875q-0.40625 1.734375 -0.40625 3.484375q0 4.46875 2.78125 8.921875l-1.203125 0zm2.634552 -8.375l1.6875 -0.140625q0.125 1.015625 0.5625 1.671875q0.4375 0.65625 1.359375 1.0625q0.9375 0.40625 2.09375 0.40625q1.03125 0 1.8125 -0.3125q0.796875 -0.3125 1.1875 -0.84375q0.390625 -0.53125 0.390625 -1.15625q0 -0.640625 -0.375 -1.109375q-0.375 -0.484375 -1.234375 -0.8125q-0.546875 -0.21875 -2.421875 -0.65625q-1.875 -0.453125 -2.625 -0.859375q-0.96875 -0.515625 -1.453125 -1.265625q-0.46875 -0.75 -0.46875 -1.6875q0 -1.03125 0.578125 -1.921875q0.59375 -0.90625 1.703125 -1.359375q1.125 -0.46875 2.5 -0.46875q1.515625 0 2.671875 0.484375q1.15625 0.484375 1.765625 1.4375q0.625 0.9375 0.671875 2.140625l-1.71875 0.125q-0.140625 -1.28125 -0.953125 -1.9375q-0.796875 -0.671875 -2.359375 -0.671875q-1.625 0 -2.375 0.609375q-0.75 0.59375 -0.75 1.4375q0 0.734375 0.53125 1.203125q0.515625 0.46875 2.703125 0.96875q2.203125 0.5 3.015625 0.875q1.1875 0.546875 1.75 1.390625q0.578125 0.828125 0.578125 1.921875q0 1.09375 -0.625 2.0625q-0.625 0.953125 -1.796875 1.484375q-1.15625 0.53125 -2.609375 0.53125q-1.84375 0 -3.09375 -0.53125q-1.25 -0.546875 -1.96875 -1.625q-0.703125 -1.078125 -0.734375 -2.453125zm19.584198 1.203125l1.71875 0.21875q-0.40625 1.5 -1.515625 2.34375q-1.09375 0.828125 -2.8125 0.828125q-2.15625 0 -3.421875 -1.328125q-1.265625 -1.328125 -1.265625 -3.734375q0 -2.484375 1.265625 -3.859375q1.28125 -1.375 3.328125 -1.375q1.984375 0 3.234375 1.34375q1.25 1.34375 1.25 3.796875q0 0.140625 -0.015625 0.4375l-7.34375 0q0.09375 1.625 0.921875 2.484375q0.828125 0.859375 2.0625 0.859375q0.90625 0 1.546875 -0.46875q0.65625 -0.484375 1.046875 -1.546875zm-5.484375 -2.703125l5.5 0q-0.109375 -1.234375 -0.625 -1.859375q-0.796875 -0.96875 -2.078125 -0.96875q-1.140625 0 -1.9375 0.78125q-0.78125 0.765625 -0.859375 2.046875zm9.094467 5.875l0 -9.859375l1.5 0l0 1.5q0.578125 -1.046875 1.0625 -1.375q0.484375 -0.34375 1.078125 -0.34375q0.84375 0 1.71875 0.546875l-0.578125 1.546875q-0.609375 -0.359375 -1.234375 -0.359375q-0.546875 0 -0.984375 0.328125q-0.421875 0.328125 -0.609375 0.90625q-0.28125 0.890625 -0.28125 1.953125l0 5.15625l-1.671875 0zm8.962677 0l-3.75 -9.859375l1.765625 0l2.125 5.90625q0.34375 0.953125 0.625 1.984375q0.21875 -0.78125 0.625 -1.875l2.1875 -6.015625l1.71875 0l-3.734375 9.859375l-1.5625 0zm6.609375 -11.6875l0 -1.90625l1.671875 0l0 1.90625l-1.671875 0zm0 11.6875l0 -9.859375l1.671875 0l0 9.859375l-1.671875 0zm10.566696 -3.609375l1.640625 0.21875q-0.265625 1.6875 -1.375 2.65625q-1.109375 0.953125 -2.734375 0.953125q-2.015625 0 -3.25 -1.3125q-1.21875 -1.328125 -1.21875 -3.796875q0 -1.59375 0.515625 -2.78125q0.53125 -1.203125 1.609375 -1.796875q1.09375 -0.609375 2.359375 -0.609375q1.609375 0 2.625 0.8125q1.015625 0.8125 1.3125 2.3125l-1.625 0.25q-0.234375 -1.0 -0.828125 -1.5q-0.59375 -0.5 -1.421875 -0.5q-1.265625 0 -2.0625 0.90625q-0.78125 0.90625 -0.78125 2.859375q0 1.984375 0.765625 2.890625q0.765625 0.890625 1.984375 0.890625q0.984375 0 1.640625 -0.59375q0.65625 -0.609375 0.84375 -1.859375zm9.640625 0.4375l1.71875 0.21875q-0.40625 1.5 -1.515625 2.34375q-1.09375 0.828125 -2.8125 0.828125q-2.15625 0 -3.421875 -1.328125q-1.265625 -1.328125 -1.265625 -3.734375q0 -2.484375 1.265625 -3.859375q1.28125 -1.375 3.328125 -1.375q1.984375 0 3.234375 1.34375q1.25 1.34375 1.25 3.796875q0 0.140625 -0.015625 0.4375l-7.34375 0q0.09375 1.625 0.921875 2.484375q0.828125 0.859375 2.0625 0.859375q0.90625 0 1.546875 -0.46875q0.65625 -0.484375 1.046875 -1.546875zm-5.484375 -2.703125l5.5 0q-0.109375 -1.234375 -0.625 -1.859375q-0.796875 -0.96875 -2.078125 -0.96875q-1.140625 0 -1.9375 0.78125q-0.78125 0.765625 -0.859375 2.046875zm10.203842 9.875l-1.1875 0q2.765625 -4.453125 2.765625 -8.921875q0 -1.734375 -0.390625 -3.453125q-0.328125 -1.390625 -0.890625 -2.671875q-0.359375 -0.84375 -1.484375 -2.78125l1.1875 0q1.75 2.328125 2.578125 4.671875q0.71875 2.015625 0.71875 4.234375q0 2.5 -0.96875 4.84375q-0.953125 2.328125 -2.328125 4.078125z" fill-rule="nonzero"></path><path fill="#b6d7a8" d="m253.5848 42.639317l0 0c0 -5.8070793 4.7075653 -10.514645 10.514664 -10.514645l104.576996 0c2.7886658 0 5.4631042 1.1077881 7.434967 3.07967c1.9718933 1.971878 3.0796814 4.6463165 3.0796814 7.4349747l0 42.057323c0 5.8070755 -4.7075806 10.514641 -10.514648 10.514641l-104.576996 0c-5.8070984 0 -10.514664 -4.7075653 -10.514664 -10.514641z" fill-rule="nonzero"></path><path stroke="#b6d7a8" stroke-width="2.0" stroke-linejoin="round" stroke-linecap="butt" d="m253.5848 42.639317l0 0c0 -5.8070793 4.7075653 -10.514645 10.514664 -10.514645l104.576996 0c2.7886658 0 5.4631042 1.1077881 7.434967 3.07967c1.9718933 1.971878 3.0796814 4.6463165 3.0796814 7.4349747l0 42.057323c0 5.8070755 -4.7075806 10.514641 -10.514648 10.514641l-104.576996 0c-5.8070984 0 -10.514664 -4.7075653 -10.514664 -10.514641z" fill-rule="nonzero"></path><path fill="#000000" fill-opacity="0.0" d="m253.5848 32.124672l125.60631 0l0 63.08661l-125.60631 0z" fill-rule="nonzero"></path><path fill="#000000" d="m301.52878 59.587975l-5.28125 -13.59375l1.953125 0l3.53125 9.875q0.4375 1.1875 0.71875 2.21875q0.3125 -1.109375 0.734375 -2.21875l3.671875 -9.875l1.84375 0l-5.328125 13.59375l-1.84375 0zm8.349823 -11.6875l0 -1.90625l1.671875 0l0 1.90625l-1.671875 0zm0 11.6875l0 -9.859375l1.671875 0l0 9.859375l-1.671875 0zm10.879211 -3.171875l1.71875 0.21875q-0.40625 1.5 -1.515625 2.34375q-1.09375 0.828125 -2.8125 0.828125q-2.15625 0 -3.421875 -1.328125q-1.265625 -1.328125 -1.265625 -3.734375q0 -2.484375 1.265625 -3.859375q1.28125 -1.375 3.328125 -1.375q1.984375 0 3.234375 1.34375q1.25 1.34375 1.25 3.796875q0 0.140625 -0.015625 0.4375l-7.34375 0q0.09375 1.625 0.921875 2.484375q0.828125 0.859375 2.0625 0.859375q0.90625 0 1.546875 -0.46875q0.65625 -0.484375 1.046875 -1.546875zm-5.484375 -2.703125l5.5 0q-0.109375 -1.234375 -0.625 -1.859375q-0.796875 -0.96875 -2.078125 -0.96875q-1.140625 0 -1.9375 0.78125q-0.78125 0.765625 -0.859375 2.046875zm10.938202 5.875l-3.015625 -9.859375l1.71875 0l1.5625 5.6875l0.59375 2.125q0.03125 -0.15625 0.5 -2.03125l1.578125 -5.78125l1.71875 0l1.46875 5.71875l0.484375 1.890625l0.578125 -1.90625l1.6875 -5.703125l1.625 0l-3.078125 9.859375l-1.734375 0l-1.578125 -5.90625l-0.375 -1.671875l-2.0 7.578125l-1.734375 0z" fill-rule="nonzero"></path><path fill="#000000" d="m275.72888 85.587975q-1.375 -1.75 -2.328125 -4.078125q-0.953125 -2.34375 -0.953125 -4.84375q0 -2.21875 0.703125 -4.234375q0.84375 -2.34375 2.578125 -4.671875l1.203125 0q-1.125 1.921875 -1.484375 2.75q-0.5625 1.28125 -0.890625 2.671875q-0.40625 1.734375 -0.40625 3.484375q0 4.46875 2.78125 8.921875l-1.203125 0zm6.697052 -4.0l0 -12.0l-4.46875 0l0 -1.59375l10.765625 0l0 1.59375l-4.5 0l0 12.0l-1.796875 0zm14.474091 -3.171875l1.71875 0.21875q-0.40625 1.5 -1.515625 2.34375q-1.09375 0.828125 -2.8125 0.828125q-2.15625 0 -3.421875 -1.328125q-1.265625 -1.328125 -1.265625 -3.734375q0 -2.484375 1.265625 -3.859375q1.28125 -1.375 3.328125 -1.375q1.984375 0 3.234375 1.34375q1.25 1.34375 1.25 3.796875q0 0.140625 -0.015625 0.4375l-7.34375 0q0.09375 1.625 0.921875 2.484375q0.828125 0.859375 2.0625 0.859375q0.90625 0 1.546875 -0.46875q0.65625 -0.484375 1.046875 -1.546875zm-5.484375 -2.703125l5.5 0q-0.109375 -1.234375 -0.625 -1.859375q-0.796875 -0.96875 -2.078125 -0.96875q-1.140625 0 -1.9375 0.78125q-0.78125 0.765625 -0.859375 2.046875zm9.110107 5.875l0 -9.859375l1.5 0l0 1.390625q0.453125 -0.71875 1.21875 -1.15625q0.78125 -0.453125 1.765625 -0.453125q1.09375 0 1.796875 0.453125q0.703125 0.453125 0.984375 1.28125q1.171875 -1.734375 3.046875 -1.734375q1.46875 0 2.25 0.8125q0.796875 0.8125 0.796875 2.5l0 6.765625l-1.671875 0l0 -6.203125q0 -1.0 -0.15625 -1.4375q-0.15625 -0.453125 -0.59375 -0.71875q-0.421875 -0.265625 -1.0 -0.265625q-1.03125 0 -1.71875 0.6875q-0.6875 0.6875 -0.6875 2.21875l0 5.71875l-1.671875 0l0 -6.40625q0 -1.109375 -0.40625 -1.65625q-0.40625 -0.5625 -1.34375 -0.5625q-0.703125 0 -1.3125 0.375q-0.59375 0.359375 -0.859375 1.078125q-0.265625 0.71875 -0.265625 2.0625l0 5.109375l-1.671875 0zm15.540802 3.78125l0 -13.640625l1.53125 0l0 1.28125q0.53125 -0.75 1.203125 -1.125q0.6875 -0.375 1.640625 -0.375q1.265625 0 2.234375 0.65625q0.96875 0.640625 1.453125 1.828125q0.5 1.1875 0.5 2.59375q0 1.515625 -0.546875 2.734375q-0.546875 1.203125 -1.578125 1.84375q-1.03125 0.640625 -2.171875 0.640625q-0.84375 0 -1.515625 -0.34375q-0.65625 -0.359375 -1.078125 -0.890625l0 4.796875l-1.671875 0zm1.515625 -8.65625q0 1.90625 0.765625 2.8125q0.78125 0.90625 1.875 0.90625q1.109375 0 1.890625 -0.9375q0.796875 -0.9375 0.796875 -2.921875q0 -1.875 -0.78125 -2.8125q-0.765625 -0.9375 -1.84375 -0.9375q-1.0625 0 -1.890625 1.0q-0.8125 1.0 -0.8125 2.890625zm8.828827 4.875l0 -13.59375l1.671875 0l0 13.59375l-1.671875 0zm10.613586 -1.21875q-0.9375 0.796875 -1.796875 1.125q-0.859375 0.3125 -1.84375 0.3125q-1.609375 0 -2.484375 -0.78125q-0.875 -0.796875 -0.875 -2.03125q0 -0.734375 0.328125 -1.328125q0.328125 -0.59375 0.859375 -0.953125q0.53125 -0.359375 1.203125 -0.546875q0.5 -0.140625 1.484375 -0.25q2.03125 -0.25 2.984375 -0.578125q0 -0.34375 0 -0.4375q0 -1.015625 -0.46875 -1.4375q-0.640625 -0.5625 -1.90625 -0.5625q-1.171875 0 -1.734375 0.40625q-0.5625 0.40625 -0.828125 1.46875l-1.640625 -0.234375q0.234375 -1.046875 0.734375 -1.6875q0.515625 -0.640625 1.46875 -0.984375q0.96875 -0.359375 2.25 -0.359375q1.265625 0 2.046875 0.296875q0.78125 0.296875 1.15625 0.75q0.375 0.453125 0.515625 1.140625q0.09375 0.421875 0.09375 1.53125l0 2.234375q0 2.328125 0.09375 2.953125q0.109375 0.609375 0.4375 1.171875l-1.75 0q-0.265625 -0.515625 -0.328125 -1.21875zm-0.140625 -3.71875q-0.90625 0.359375 -2.734375 0.625q-1.03125 0.140625 -1.453125 0.328125q-0.421875 0.1875 -0.65625 0.546875q-0.234375 0.359375 -0.234375 0.796875q0 0.671875 0.5 1.125q0.515625 0.4375 1.484375 0.4375q0.96875 0 1.71875 -0.421875q0.75 -0.4375 1.109375 -1.15625q0.265625 -0.578125 0.265625 -1.671875l0 -0.609375zm7.735077 3.4375l0.234375 1.484375q-0.703125 0.140625 -1.265625 0.140625q-0.90625 0 -1.40625 -0.28125q-0.5 -0.296875 -0.703125 -0.75q-0.203125 -0.46875 -0.203125 -1.984375l0 -5.65625l-1.234375 0l0 -1.3125l1.234375 0l0 -2.4375l1.65625 -1.0l0 3.4375l1.6875 0l0 1.3125l-1.6875 0l0 5.75q0 0.71875 0.078125 0.921875q0.09375 0.203125 0.296875 0.328125q0.203125 0.125 0.578125 0.125q0.265625 0 0.734375 -0.078125zm8.277069 -1.671875l1.71875 0.21875q-0.40625 1.5 -1.515625 2.34375q-1.09375 0.828125 -2.8125 0.828125q-2.15625 0 -3.421875 -1.328125q-1.265625 -1.328125 -1.265625 -3.734375q0 -2.484375 1.265625 -3.859375q1.28125 -1.375 3.328125 -1.375q1.984375 0 3.234375 1.34375q1.25 1.34375 1.25 3.796875q0 0.140625 -0.015625 0.4375l-7.34375 0q0.09375 1.625 0.921875 2.484375q0.828125 0.859375 2.0625 0.859375q0.90625 0 1.546875 -0.46875q0.65625 -0.484375 1.046875 -1.546875zm-5.484375 -2.703125l5.5 0q-0.109375 -1.234375 -0.625 -1.859375q-0.796875 -0.96875 -2.078125 -0.96875q-1.140625 0 -1.9375 0.78125q-0.78125 0.765625 -0.859375 2.046875zm10.203827 9.875l-1.1875 0q2.765625 -4.453125 2.765625 -8.921875q0 -1.734375 -0.390625 -3.453125q-0.328125 -1.390625 -0.890625 -2.671875q-0.359375 -0.84375 -1.484375 -2.78125l1.1875 0q1.75 2.328125 2.578125 4.671875q0.71875 2.015625 0.71875 4.234375q0 2.5 -0.96875 4.84375q-0.953125 2.328125 -2.328125 4.078125z" fill-rule="nonzero"></path><path fill="#dd7e6b" d="m127.9785 196.95166l0 0c0 -5.807083 4.7075653 -10.514648 10.514648 -10.514648l104.576996 0c2.7886658 0 5.4631042 1.1077881 7.4349823 3.0796661c1.971878 1.971878 3.0796661 4.6463165 3.0796661 7.4349823l0 42.057312c0 5.807083 -4.7075653 10.514648 -10.514648 10.514648l-104.576996 0c-5.807083 0 -10.514648 -4.7075653 -10.514648 -10.514648z" fill-rule="nonzero"></path><path stroke="#dd7e6b" stroke-width="2.0" stroke-linejoin="round" stroke-linecap="butt" d="m127.9785 196.95166l0 0c0 -5.807083 4.7075653 -10.514648 10.514648 -10.514648l104.576996 0c2.7886658 0 5.4631042 1.1077881 7.4349823 3.0796661c1.971878 1.971878 3.0796661 4.6463165 3.0796661 7.4349823l0 42.057312c0 5.807083 -4.7075653 10.514648 -10.514648 10.514648l-104.576996 0c-5.807083 0 -10.514648 -4.7075653 -10.514648 -10.514648z" fill-rule="nonzero"></path><path fill="#000000" fill-opacity="0.0" d="m127.9785 186.43701l125.60629 0l0 63.08661l-125.60629 0z" fill-rule="nonzero"></path><path fill="#000000" d="m161.51646 209.13469l1.796875 0.453125q-0.5625 2.21875 -2.03125 3.390625q-1.46875 1.15625 -3.59375 1.15625q-2.203125 0 -3.578125 -0.890625q-1.375 -0.90625 -2.09375 -2.59375q-0.71875 -1.703125 -0.71875 -3.65625q0 -2.125 0.796875 -3.703125q0.8125 -1.578125 2.3125 -2.390625q1.5 -0.828125 3.296875 -0.828125q2.046875 0 3.4375 1.046875q1.390625 1.03125 1.9375 2.90625l-1.765625 0.421875q-0.46875 -1.484375 -1.375 -2.15625q-0.90625 -0.6875 -2.265625 -0.6875q-1.5625 0 -2.625 0.75q-1.046875 0.75 -1.484375 2.03125q-0.421875 1.265625 -0.421875 2.609375q0 1.734375 0.5 3.03125q0.515625 1.28125 1.578125 1.921875q1.078125 0.640625 2.3125 0.640625q1.515625 0 2.5625 -0.859375q1.046875 -0.875 1.421875 -2.59375zm2.9260712 -0.15625q0 -2.734375 1.53125 -4.0625q1.265625 -1.09375 3.09375 -1.09375q2.03125 0 3.3125 1.34375q1.296875 1.328125 1.296875 3.671875q0 1.90625 -0.578125 3.0q-0.5625 1.078125 -1.65625 1.6875q-1.078125 0.59375 -2.375 0.59375q-2.0625 0 -3.34375 -1.328125q-1.28125 -1.328125 -1.28125 -3.8125zm1.71875 0q0 1.890625 0.828125 2.828125q0.828125 0.9375 2.078125 0.9375q1.25 0 2.0625 -0.9375q0.828125 -0.953125 0.828125 -2.890625q0 -1.828125 -0.828125 -2.765625q-0.828125 -0.9375 -2.0625 -0.9375q-1.25 0 -2.078125 0.9375q-0.828125 0.9375 -0.828125 2.828125zm9.281967 4.921875l0 -9.859375l1.5 0l0 1.40625q1.09375 -1.625 3.140625 -1.625q0.890625 0 1.640625 0.328125q0.75 0.3125 1.109375 0.84375q0.375 0.515625 0.53125 1.21875q0.09375 0.46875 0.09375 1.625l0 6.0625l-1.671875 0l0 -6.0q0 -1.015625 -0.203125 -1.515625q-0.1875 -0.515625 -0.6875 -0.8125q-0.5 -0.296875 -1.171875 -0.296875q-1.0625 0 -1.84375 0.671875q-0.765625 0.671875 -0.765625 2.578125l0 5.375l-1.671875 0zm14.031967 -1.5l0.234375 1.484375q-0.703125 0.140625 -1.265625 0.140625q-0.90625 0 -1.40625 -0.28125q-0.5 -0.296875 -0.703125 -0.75q-0.203125 -0.46875 -0.203125 -1.984375l0 -5.65625l-1.234375 0l0 -1.3125l1.234375 0l0 -2.4375l1.65625 -1.0l0 3.4375l1.6875 0l0 1.3125l-1.6875 0l0 5.75q0 0.71875 0.078125 0.921875q0.09375 0.203125 0.296875 0.328125q0.203125 0.125 0.578125 0.125q0.265625 0 0.734375 -0.078125zm1.5114288 1.5l0 -9.859375l1.5 0l0 1.5q0.578125 -1.046875 1.0625 -1.375q0.484375 -0.34375 1.078125 -0.34375q0.84375 0 1.71875 0.546875l-0.578125 1.546875q-0.609375 -0.359375 -1.234375 -0.359375q-0.546875 0 -0.984375 0.328125q-0.421875 0.328125 -0.609375 0.90625q-0.28125 0.890625 -0.28125 1.953125l0 5.15625l-1.671875 0zm5.603302 -4.921875q0 -2.734375 1.53125 -4.0625q1.265625 -1.09375 3.09375 -1.09375q2.03125 0 3.3125 1.34375q1.296875 1.328125 1.296875 3.671875q0 1.90625 -0.578125 3.0q-0.5625 1.078125 -1.65625 1.6875q-1.078125 0.59375 -2.375 0.59375q-2.0625 0 -3.34375 -1.328125q-1.28125 -1.328125 -1.28125 -3.8125zm1.71875 0q0 1.890625 0.828125 2.828125q0.828125 0.9375 2.078125 0.9375q1.25 0 2.0625 -0.9375q0.828125 -0.953125 0.828125 -2.890625q0 -1.828125 -0.828125 -2.765625q-0.828125 -0.9375 -2.0625 -0.9375q-1.25 0 -2.078125 0.9375q-0.828125 0.9375 -0.828125 2.828125zm9.250717 4.921875l0 -13.59375l1.671875 0l0 13.59375l-1.671875 0zm4.144821 0l0 -13.59375l1.671875 0l0 13.59375l-1.671875 0zm10.926071 -3.171875l1.71875 0.21875q-0.40625 1.5 -1.515625 2.34375q-1.09375 0.828125 -2.8125 0.828125q-2.15625 0 -3.421875 -1.328125q-1.265625 -1.328125 -1.265625 -3.734375q0 -2.484375 1.265625 -3.859375q1.28125 -1.375 3.328125 -1.375q1.984375 0 3.234375 1.34375q1.25 1.34375 1.25 3.796875q0 0.140625 -0.015625 0.4375l-7.34375 0q0.09375 1.625 0.921875 2.484375q0.828125 0.859375 2.0625 0.859375q0.90625 0 1.546875 -0.46875q0.65625 -0.484375 1.046875 -1.546875zm-5.484375 -2.703125l5.5 0q-0.109375 -1.234375 -0.625 -1.859375q-0.796875 -0.96875 -2.078125 -0.96875q-1.140625 0 -1.9375 0.78125q-0.78125 0.765625 -0.859375 2.046875zm9.094467 5.875l0 -9.859375l1.5 0l0 1.5q0.578125 -1.046875 1.0625 -1.375q0.484375 -0.34375 1.078125 -0.34375q0.84375 0 1.71875 0.546875l-0.578125 1.546875q-0.609375 -0.359375 -1.234375 -0.359375q-0.546875 0 -0.984375 0.328125q-0.421875 0.328125 -0.609375 0.90625q-0.28125 0.890625 -0.28125 1.953125l0 5.15625l-1.671875 0z" fill-rule="nonzero"></path><path fill="#000000" d="m148.56941 239.90031q-1.375 -1.75 -2.328125 -4.078125q-0.953125 -2.34375 -0.953125 -4.84375q0 -2.21875 0.703125 -4.234375q0.84375 -2.34375 2.578125 -4.671875l1.203125 0q-1.125 1.921875 -1.484375 2.75q-0.5625 1.28125 -0.890625 2.671875q-0.40625 1.734375 -0.40625 3.484375q0 4.46875 2.78125 8.921875l-1.203125 0zm12.947052 -8.765625l1.796875 0.453125q-0.5625 2.21875 -2.03125 3.390625q-1.46875 1.15625 -3.59375 1.15625q-2.203125 0 -3.578125 -0.890625q-1.375 -0.90625 -2.09375 -2.59375q-0.71875 -1.703125 -0.71875 -3.65625q0 -2.125 0.796875 -3.703125q0.8125 -1.578125 2.3125 -2.390625q1.5 -0.828125 3.296875 -0.828125q2.046875 0 3.4375 1.046875q1.390625 1.03125 1.9375 2.90625l-1.765625 0.421875q-0.46875 -1.484375 -1.375 -2.15625q-0.90625 -0.6875 -2.265625 -0.6875q-1.5625 0 -2.625 0.75q-1.046875 0.75 -1.484375 2.03125q-0.421875 1.265625 -0.421875 2.609375q0 1.734375 0.5 3.03125q0.515625 1.28125 1.578125 1.921875q1.078125 0.640625 2.3125 0.640625q1.515625 0 2.5625 -0.859375q1.046875 -0.875 1.421875 -2.59375zm2.9260712 -0.15625q0 -2.734375 1.53125 -4.0625q1.265625 -1.09375 3.09375 -1.09375q2.03125 0 3.3125 1.34375q1.296875 1.328125 1.296875 3.671875q0 1.90625 -0.578125 3.0q-0.5625 1.078125 -1.65625 1.6875q-1.078125 0.59375 -2.375 0.59375q-2.0625 0 -3.34375 -1.328125q-1.28125 -1.328125 -1.28125 -3.8125zm1.71875 0q0 1.890625 0.828125 2.828125q0.828125 0.9375 2.078125 0.9375q1.25 0 2.0625 -0.9375q0.828125 -0.953125 0.828125 -2.890625q0 -1.828125 -0.828125 -2.765625q-0.828125 -0.9375 -2.0625 -0.9375q-1.25 0 -2.078125 0.9375q-0.828125 0.9375 -0.828125 2.828125zm9.281967 4.921875l0 -9.859375l1.5 0l0 1.40625q1.09375 -1.625 3.140625 -1.625q0.890625 0 1.640625 0.328125q0.75 0.3125 1.109375 0.84375q0.375 0.515625 0.53125 1.21875q0.09375 0.46875 0.09375 1.625l0 6.0625l-1.671875 0l0 -6.0q0 -1.015625 -0.203125 -1.515625q-0.1875 -0.515625 -0.6875 -0.8125q-0.5 -0.296875 -1.171875 -0.296875q-1.0625 0 -1.84375 0.671875q-0.765625 0.671875 -0.765625 2.578125l0 5.375l-1.671875 0zm14.031967 -1.5l0.234375 1.484375q-0.703125 0.140625 -1.265625 0.140625q-0.90625 0 -1.40625 -0.28125q-0.5 -0.296875 -0.703125 -0.75q-0.203125 -0.46875 -0.203125 -1.984375l0 -5.65625l-1.234375 0l0 -1.3125l1.234375 0l0 -2.4375l1.65625 -1.0l0 3.4375l1.6875 0l0 1.3125l-1.6875 0l0 5.75q0 0.71875 0.078125 0.921875q0.09375 0.203125 0.296875 0.328125q0.203125 0.125 0.578125 0.125q0.265625 0 0.734375 -0.078125zm1.5114288 1.5l0 -9.859375l1.5 0l0 1.5q0.578125 -1.046875 1.0625 -1.375q0.484375 -0.34375 1.078125 -0.34375q0.84375 0 1.71875 0.546875l-0.578125 1.546875q-0.609375 -0.359375 -1.234375 -0.359375q-0.546875 0 -0.984375 0.328125q-0.421875 0.328125 -0.609375 0.90625q-0.28125 0.890625 -0.28125 1.953125l0 5.15625l-1.671875 0zm5.603302 -4.921875q0 -2.734375 1.53125 -4.0625q1.265625 -1.09375 3.09375 -1.09375q2.03125 0 3.3125 1.34375q1.296875 1.328125 1.296875 3.671875q0 1.90625 -0.578125 3.0q-0.5625 1.078125 -1.65625 1.6875q-1.078125 0.59375 -2.375 0.59375q-2.0625 0 -3.34375 -1.328125q-1.28125 -1.328125 -1.28125 -3.8125zm1.71875 0q0 1.890625 0.828125 2.828125q0.828125 0.9375 2.078125 0.9375q1.25 0 2.0625 -0.9375q0.828125 -0.953125 0.828125 -2.890625q0 -1.828125 -0.828125 -2.765625q-0.828125 -0.9375 -2.0625 -0.9375q-1.25 0 -2.078125 0.9375q-0.828125 0.9375 -0.828125 2.828125zm9.250717 4.921875l0 -13.59375l1.671875 0l0 13.59375l-1.671875 0zm4.144821 0l0 -13.59375l1.671875 0l0 13.59375l-1.671875 0zm10.926071 -3.171875l1.71875 0.21875q-0.40625 1.5 -1.515625 2.34375q-1.09375 0.828125 -2.8125 0.828125q-2.15625 0 -3.421875 -1.328125q-1.265625 -1.328125 -1.265625 -3.734375q0 -2.484375 1.265625 -3.859375q1.28125 -1.375 3.328125 -1.375q1.984375 0 3.234375 1.34375q1.25 1.34375 1.25 3.796875q0 0.140625 -0.015625 0.4375l-7.34375 0q0.09375 1.625 0.921875 2.484375q0.828125 0.859375 2.0625 0.859375q0.90625 0 1.546875 -0.46875q0.65625 -0.484375 1.046875 -1.546875zm-5.484375 -2.703125l5.5 0q-0.109375 -1.234375 -0.625 -1.859375q-0.796875 -0.96875 -2.078125 -0.96875q-1.140625 0 -1.9375 0.78125q-0.78125 0.765625 -0.859375 2.046875zm9.094467 5.875l0 -9.859375l1.5 0l0 1.5q0.578125 -1.046875 1.0625 -1.375q0.484375 -0.34375 1.078125 -0.34375q0.84375 0 1.71875 0.546875l-0.578125 1.546875q-0.609375 -0.359375 -1.234375 -0.359375q-0.546875 0 -0.984375 0.328125q-0.421875 0.328125 -0.609375 0.90625q-0.28125 0.890625 -0.28125 1.953125l0 5.15625l-1.671875 0zm7.322052 4.0l-1.1875 0q2.765625 -4.453125 2.765625 -8.921875q0 -1.734375 -0.390625 -3.453125q-0.328125 -1.390625 -0.890625 -2.671875q-0.359375 -0.84375 -1.484375 -2.78125l1.1875 0q1.75 2.328125 2.578125 4.671875q0.71875 2.015625 0.71875 4.234375q0 2.5 -0.96875 4.84375q-0.953125 2.328125 -2.328125 4.078125z" fill-rule="nonzero"></path><path fill="#000000" fill-opacity="0.0" d="m246.71078 39.374016l-112.409454 -0.40945053" fill-rule="nonzero"></path><path stroke="#000000" stroke-width="2.0" stroke-linejoin="round" stroke-linecap="butt" d="m246.71077 39.374016l-100.409515 -0.36573792" fill-rule="evenodd"></path><path fill="#000000" stroke="#000000" stroke-width="2.0" stroke-linecap="butt" d="m146.3133 35.704834l-9.088181 3.270382l9.064102 3.336502z" fill-rule="evenodd"></path><path fill="#000000" fill-opacity="0.0" d="m137.16223 50.40814l107.08661 0" fill-rule="nonzero"></path><path stroke="#000000" stroke-width="2.0" stroke-linejoin="round" stroke-linecap="butt" d="m137.16223 50.40814l95.08659 0" fill-rule="evenodd"></path><path fill="#000000" stroke="#000000" stroke-width="2.0" stroke-linecap="butt" d="m232.24883 53.7116l9.076202 -3.303463l-9.076202 -3.3034668z" fill-rule="evenodd"></path><path fill="#000000" fill-opacity="0.0" d="m121.94701 0l137.6693 0l0 32.125984l-137.6693 0z" fill-rule="nonzero"></path><path fill="#000000" d="m158.01602 20.688618q1.046875 0.734375 1.9375 1.0625l-0.4375 1.0625q-1.234375 -0.4375 -2.46875 -1.40625q-1.265625 0.71875 -2.8125 0.71875q-1.546875 0 -2.8125 -0.75q-1.265625 -0.765625 -1.953125 -2.125q-0.6875 -1.359375 -0.6875 -3.0625q0 -1.6875 0.6875 -3.078125q0.6875 -1.390625 1.953125 -2.109375q1.28125 -0.734375 2.84375 -0.734375q1.59375 0 2.859375 0.75q1.28125 0.75 1.9375 2.109375q0.671875 1.359375 0.671875 3.0625q0 1.40625 -0.4375 2.546875q-0.421875 1.125 -1.28125 1.953125zm-3.34375 -1.9375q1.3125 0.375 2.171875 1.09375q1.328125 -1.21875 1.328125 -3.65625q0 -1.390625 -0.46875 -2.421875q-0.46875 -1.046875 -1.390625 -1.625q-0.90625 -0.578125 -2.03125 -0.578125q-1.703125 0 -2.828125 1.171875q-1.109375 1.15625 -1.109375 3.453125q0 2.234375 1.109375 3.4375q1.109375 1.1875 2.828125 1.1875q0.8125 0 1.53125 -0.296875q-0.71875 -0.46875 -1.5 -0.65625l0.359375 -1.109375zm12.3671875 3.171875l0 -1.21875q-0.96875 1.40625 -2.640625 1.40625q-0.734375 0 -1.375 -0.28125q-0.625 -0.28125 -0.9375 -0.703125q-0.3125 -0.4375 -0.4375 -1.046875q-0.078125 -0.421875 -0.078125 -1.3125l0 -5.140625l1.40625 0l0 4.59375q0 1.109375 0.078125 1.484375q0.140625 0.5625 0.5625 0.875q0.4375 0.3125 1.0625 0.3125q0.640625 0 1.1875 -0.3125q0.5625 -0.328125 0.78125 -0.890625q0.234375 -0.5625 0.234375 -1.625l0 -4.4375l1.40625 0l0 8.296875l-1.25 0zm9.1328125 -2.671875l1.453125 0.171875q-0.34375 1.28125 -1.28125 1.984375q-0.921875 0.703125 -2.359375 0.703125q-1.828125 0 -2.890625 -1.125q-1.0625 -1.125 -1.0625 -3.140625q0 -2.09375 1.078125 -3.25q1.078125 -1.15625 2.796875 -1.15625q1.65625 0 2.703125 1.140625q1.0625 1.125 1.0625 3.171875q0 0.125 0 0.375l-6.1875 0q0.078125 1.375 0.765625 2.109375q0.703125 0.71875 1.734375 0.71875q0.78125 0 1.328125 -0.40625q0.546875 -0.40625 0.859375 -1.296875zm-4.609375 -2.28125l4.625 0q-0.09375 -1.046875 -0.53125 -1.5625q-0.671875 -0.8125 -1.734375 -0.8125q-0.96875 0 -1.640625 0.65625q-0.65625 0.640625 -0.71875 1.71875zm7.8203125 4.953125l0 -8.296875l1.265625 0l0 1.25q0.484375 -0.875 0.890625 -1.15625q0.40625 -0.28125 0.90625 -0.28125q0.703125 0 1.4375 0.453125l-0.484375 1.296875q-0.515625 -0.296875 -1.03125 -0.296875q-0.453125 0 -0.828125 0.28125q-0.359375 0.265625 -0.515625 0.765625q-0.234375 0.75 -0.234375 1.640625l0 4.34375l-1.40625 0zm5.28125 3.203125l-0.15625 -1.328125q0.453125 0.125 0.796875 0.125q0.46875 0 0.75 -0.15625q0.28125 -0.15625 0.46875 -0.4375q0.125 -0.203125 0.421875 -1.046875q0.046875 -0.109375 0.125 -0.34375l-3.140625 -8.3125l1.515625 0l1.71875 4.796875q0.34375 0.921875 0.609375 1.921875q0.234375 -0.96875 0.578125 -1.890625l1.765625 -4.828125l1.40625 0l-3.15625 8.4375q-0.5 1.375 -0.78125 1.890625q-0.375 0.6875 -0.859375 1.015625q-0.484375 0.328125 -1.15625 0.328125q-0.40625 0 -0.90625 -0.171875zm12.1640625 -6.890625l1.4375 -0.125q0.09375 0.859375 0.46875 1.421875q0.375 0.546875 1.15625 0.890625q0.78125 0.328125 1.75 0.328125q0.875 0 1.53125 -0.25q0.671875 -0.265625 0.984375 -0.703125q0.328125 -0.453125 0.328125 -0.984375q0 -0.546875 -0.3125 -0.9375q-0.3125 -0.40625 -1.03125 -0.6875q-0.453125 -0.171875 -2.03125 -0.546875q-1.578125 -0.390625 -2.21875 -0.71875q-0.8125 -0.4375 -1.21875 -1.0625q-0.40625 -0.640625 -0.40625 -1.4375q0 -0.859375 0.484375 -1.609375q0.5 -0.765625 1.4375 -1.15625q0.953125 -0.390625 2.109375 -0.390625q1.28125 0 2.25 0.421875q0.96875 0.40625 1.484375 1.203125q0.53125 0.796875 0.578125 1.796875l-1.453125 0.109375q-0.125 -1.078125 -0.796875 -1.625q-0.671875 -0.5625 -2.0 -0.5625q-1.375 0 -2.0 0.5q-0.625 0.5 -0.625 1.21875q0 0.609375 0.4375 1.015625q0.4375 0.390625 2.28125 0.8125q1.859375 0.421875 2.546875 0.734375q1.0 0.453125 1.46875 1.171875q0.484375 0.703125 0.484375 1.625q0 0.90625 -0.53125 1.71875q-0.515625 0.8125 -1.5 1.265625q-0.984375 0.453125 -2.203125 0.453125q-1.5625 0 -2.609375 -0.453125q-1.046875 -0.46875 -1.65625 -1.375q-0.59375 -0.90625 -0.625 -2.0625zm14.078125 2.421875l0.203125 1.25q-0.59375 0.125 -1.0625 0.125q-0.765625 0 -1.1875 -0.234375q-0.421875 -0.25 -0.59375 -0.640625q-0.171875 -0.40625 -0.171875 -1.671875l0 -4.765625l-1.03125 0l0 -1.09375l1.03125 0l0 -2.0625l1.40625 -0.84375l0 2.90625l1.40625 0l0 1.09375l-1.40625 0l0 4.84375q0 0.609375 0.0625 0.78125q0.078125 0.171875 0.25 0.28125q0.171875 0.09375 0.484375 0.09375q0.234375 0 0.609375 -0.0625zm6.7890625 0.234375q-0.78125 0.671875 -1.5 0.953125q-0.71875 0.265625 -1.546875 0.265625q-1.375 0 -2.109375 -0.671875q-0.734375 -0.671875 -0.734375 -1.703125q0 -0.609375 0.28125 -1.109375q0.28125 -0.515625 0.71875 -0.8125q0.453125 -0.3125 1.015625 -0.46875q0.421875 -0.109375 1.25 -0.203125q1.703125 -0.203125 2.515625 -0.484375q0 -0.296875 0 -0.375q0 -0.859375 -0.390625 -1.203125q-0.546875 -0.484375 -1.609375 -0.484375q-0.984375 0 -1.46875 0.359375q-0.46875 0.34375 -0.6875 1.21875l-1.375 -0.1875q0.1875 -0.875 0.609375 -1.421875q0.4375 -0.546875 1.25 -0.828125q0.8125 -0.296875 1.875 -0.296875q1.0625 0 1.71875 0.25q0.671875 0.25 0.984375 0.625q0.3125 0.375 0.4375 0.953125q0.078125 0.359375 0.078125 1.296875l0 1.875q0 1.96875 0.078125 2.484375q0.09375 0.515625 0.359375 1.0l-1.46875 0q-0.21875 -0.4375 -0.28125 -1.03125zm-0.109375 -3.140625q-0.765625 0.3125 -2.296875 0.53125q-0.875 0.125 -1.234375 0.28125q-0.359375 0.15625 -0.5625 0.46875q-0.1875 0.296875 -0.1875 0.65625q0 0.5625 0.421875 0.9375q0.4375 0.375 1.25 0.375q0.8125 0 1.4375 -0.34375q0.640625 -0.359375 0.9375 -0.984375q0.234375 -0.46875 0.234375 -1.40625l0 -0.515625zm6.6640625 2.90625l0.203125 1.25q-0.59375 0.125 -1.0625 0.125q-0.765625 0 -1.1875 -0.234375q-0.421875 -0.25 -0.59375 -0.640625q-0.171875 -0.40625 -0.171875 -1.671875l0 -4.765625l-1.03125 0l0 -1.09375l1.03125 0l0 -2.0625l1.40625 -0.84375l0 2.90625l1.40625 0l0 1.09375l-1.40625 0l0 4.84375q0 0.609375 0.0625 0.78125q0.078125 0.171875 0.25 0.28125q0.171875 0.09375 0.484375 0.09375q0.234375 0 0.609375 -0.0625zm7.0546875 -1.40625l1.453125 0.171875q-0.34375 1.28125 -1.28125 1.984375q-0.921875 0.703125 -2.359375 0.703125q-1.828125 0 -2.890625 -1.125q-1.0625 -1.125 -1.0625 -3.140625q0 -2.09375 1.078125 -3.25q1.078125 -1.15625 2.796875 -1.15625q1.65625 0 2.703125 1.140625q1.0625 1.125 1.0625 3.171875q0 0.125 0 0.375l-6.1875 0q0.078125 1.375 0.765625 2.109375q0.703125 0.71875 1.734375 0.71875q0.78125 0 1.328125 -0.40625q0.546875 -0.40625 0.859375 -1.296875zm-4.609375 -2.28125l4.625 0q-0.09375 -1.046875 -0.53125 -1.5625q-0.671875 -0.8125 -1.734375 -0.8125q-0.96875 0 -1.640625 0.65625q-0.65625 0.640625 -0.71875 1.71875z" fill-rule="nonzero"></path><path fill="#000000" fill-opacity="0.0" d="m121.67141 50.40945l137.66928 0l0 32.12598l-137.66928 0z" fill-rule="nonzero"></path><path fill="#000000" d="m138.36934 72.33244l0 -11.453125l1.5625 0l6.015625 8.984375l0 -8.984375l1.453125 0l0 11.453125l-1.5625 0l-6.015625 -9.0l0 9.0l-1.453125 0zm10.8671875 -4.15625q0 -2.296875 1.28125 -3.40625q1.078125 -0.921875 2.609375 -0.921875q1.71875 0 2.796875 1.125q1.09375 1.109375 1.09375 3.09375q0 1.59375 -0.484375 2.515625q-0.484375 0.921875 -1.40625 1.4375q-0.90625 0.5 -2.0 0.5q-1.734375 0 -2.8125 -1.109375q-1.078125 -1.125 -1.078125 -3.234375zm1.453125 0q0 1.59375 0.6875 2.390625q0.703125 0.796875 1.75 0.796875q1.046875 0 1.734375 -0.796875q0.703125 -0.796875 0.703125 -2.4375q0 -1.53125 -0.703125 -2.328125q-0.6875 -0.796875 -1.734375 -0.796875q-1.046875 0 -1.75 0.796875q-0.6875 0.78125 -0.6875 2.375zm11.0390625 2.890625l0.203125 1.25q-0.59375 0.125 -1.0625 0.125q-0.765625 0 -1.1875 -0.234375q-0.421875 -0.25 -0.59375 -0.640625q-0.171875 -0.40625 -0.171875 -1.671875l0 -4.765625l-1.03125 0l0 -1.09375l1.03125 0l0 -2.0625l1.40625 -0.84375l0 2.90625l1.40625 0l0 1.09375l-1.40625 0l0 4.84375q0 0.609375 0.0625 0.78125q0.078125 0.171875 0.25 0.28125q0.171875 0.09375 0.484375 0.09375q0.234375 0 0.609375 -0.0625zm1.3828125 -8.578125l0 -1.609375l1.40625 0l0 1.609375l-1.40625 0zm0 9.84375l0 -8.296875l1.40625 0l0 8.296875l-1.40625 0zm3.8828125 0l0 -7.203125l-1.234375 0l0 -1.09375l1.234375 0l0 -0.890625q0 -0.828125 0.15625 -1.234375q0.203125 -0.546875 0.703125 -0.890625q0.515625 -0.34375 1.4375 -0.34375q0.59375 0 1.3125 0.140625l-0.203125 1.234375q-0.4375 -0.078125 -0.828125 -0.078125q-0.640625 0 -0.90625 0.28125q-0.265625 0.265625 -0.265625 1.015625l0 0.765625l1.609375 0l0 1.09375l-1.609375 0l0 7.203125l-1.40625 0zm4.0546875 3.203125l-0.15625 -1.328125q0.453125 0.125 0.796875 0.125q0.46875 0 0.75 -0.15625q0.28125 -0.15625 0.46875 -0.4375q0.125 -0.203125 0.421875 -1.046875q0.046875 -0.109375 0.125 -0.34375l-3.140625 -8.3125l1.515625 0l1.71875 4.796875q0.34375 0.921875 0.609375 1.921875q0.234375 -0.96875 0.578125 -1.890625l1.765625 -4.828125l1.40625 0l-3.15625 8.4375q-0.5 1.375 -0.78125 1.890625q-0.375 0.6875 -0.859375 1.015625q-0.484375 0.328125 -1.15625 0.328125q-0.40625 0 -0.90625 -0.171875zm12.6328125 -3.203125l0 -11.453125l2.28125 0l2.71875 8.109375q0.375 1.125 0.546875 1.6875q0.1875 -0.625 0.609375 -1.828125l2.734375 -7.96875l2.046875 0l0 11.453125l-1.46875 0l0 -9.59375l-3.328125 9.59375l-1.359375 0l-3.3125 -9.75l0 9.75l-1.46875 0zm18.640625 0l0 -1.21875q-0.96875 1.40625 -2.640625 1.40625q-0.734375 0 -1.375 -0.28125q-0.625 -0.28125 -0.9375 -0.703125q-0.3125 -0.4375 -0.4375 -1.046875q-0.078125 -0.421875 -0.078125 -1.3125l0 -5.140625l1.40625 0l0 4.59375q0 1.109375 0.078125 1.484375q0.140625 0.5625 0.5625 0.875q0.4375 0.3125 1.0625 0.3125q0.640625 0 1.1875 -0.3125q0.5625 -0.328125 0.78125 -0.890625q0.234375 -0.5625 0.234375 -1.625l0 -4.4375l1.40625 0l0 8.296875l-1.25 0zm6.5234375 -1.265625l0.203125 1.25q-0.59375 0.125 -1.0625 0.125q-0.765625 0 -1.1875 -0.234375q-0.421875 -0.25 -0.59375 -0.640625q-0.171875 -0.40625 -0.171875 -1.671875l0 -4.765625l-1.03125 0l0 -1.09375l1.03125 0l0 -2.0625l1.40625 -0.84375l0 2.90625l1.40625 0l0 1.09375l-1.40625 0l0 4.84375q0 0.609375 0.0625 0.78125q0.078125 0.171875 0.25 0.28125q0.171875 0.09375 0.484375 0.09375q0.234375 0 0.609375 -0.0625zm6.7890625 0.234375q-0.78125 0.671875 -1.5 0.953125q-0.71875 0.265625 -1.546875 0.265625q-1.375 0 -2.109375 -0.671875q-0.734375 -0.671875 -0.734375 -1.703125q0 -0.609375 0.28125 -1.109375q0.28125 -0.515625 0.71875 -0.8125q0.453125 -0.3125 1.015625 -0.46875q0.421875 -0.109375 1.25 -0.203125q1.703125 -0.203125 2.515625 -0.484375q0 -0.296875 0 -0.375q0 -0.859375 -0.390625 -1.203125q-0.546875 -0.484375 -1.609375 -0.484375q-0.984375 0 -1.46875 0.359375q-0.46875 0.34375 -0.6875 1.21875l-1.375 -0.1875q0.1875 -0.875 0.609375 -1.421875q0.4375 -0.546875 1.25 -0.828125q0.8125 -0.296875 1.875 -0.296875q1.0625 0 1.71875 0.25q0.671875 0.25 0.984375 0.625q0.3125 0.375 0.4375 0.953125q0.078125 0.359375 0.078125 1.296875l0 1.875q0 1.96875 0.078125 2.484375q0.09375 0.515625 0.359375 1.0l-1.46875 0q-0.21875 -0.4375 -0.28125 -1.03125zm-0.109375 -3.140625q-0.765625 0.3125 -2.296875 0.53125q-0.875 0.125 -1.234375 0.28125q-0.359375 0.15625 -0.5625 0.46875q-0.1875 0.296875 -0.1875 0.65625q0 0.5625 0.421875 0.9375q0.4375 0.375 1.25 0.375q0.8125 0 1.4375 -0.34375q0.640625 -0.359375 0.9375 -0.984375q0.234375 -0.46875 0.234375 -1.40625l0 -0.515625zm6.6640625 2.90625l0.203125 1.25q-0.59375 0.125 -1.0625 0.125q-0.765625 0 -1.1875 -0.234375q-0.421875 -0.25 -0.59375 -0.640625q-0.171875 -0.40625 -0.171875 -1.671875l0 -4.765625l-1.03125 0l0 -1.09375l1.03125 0l0 -2.0625l1.40625 -0.84375l0 2.90625l1.40625 0l0 1.09375l-1.40625 0l0 4.84375q0 0.609375 0.0625 0.78125q0.078125 0.171875 0.25 0.28125q0.171875 0.09375 0.484375 0.09375q0.234375 0 0.609375 -0.0625zm1.3828125 -8.578125l0 -1.609375l1.40625 0l0 1.609375l-1.40625 0zm0 9.84375l0 -8.296875l1.40625 0l0 8.296875l-1.40625 0zm3.0234375 -4.15625q0 -2.296875 1.28125 -3.40625q1.078125 -0.921875 2.609375 -0.921875q1.71875 0 2.796875 1.125q1.09375 1.109375 1.09375 3.09375q0 1.59375 -0.484375 2.515625q-0.484375 0.921875 -1.40625 1.4375q-0.90625 0.5 -2.0 0.5q-1.734375 0 -2.8125 -1.109375q-1.078125 -1.125 -1.078125 -3.234375zm1.453125 0q0 1.59375 0.6875 2.390625q0.703125 0.796875 1.75 0.796875q1.046875 0 1.734375 -0.796875q0.703125 -0.796875 0.703125 -2.4375q0 -1.53125 -0.703125 -2.328125q-0.6875 -0.796875 -1.734375 -0.796875q-1.046875 0 -1.75 0.796875q-0.6875 0.78125 -0.6875 2.375zm7.9765625 4.15625l0 -8.296875l1.265625 0l0 1.171875q0.90625 -1.359375 2.640625 -1.359375q0.75 0 1.375 0.265625q0.625 0.265625 0.9375 0.703125q0.3125 0.4375 0.4375 1.046875q0.078125 0.390625 0.078125 1.359375l0 5.109375l-1.40625 0l0 -5.046875q0 -0.859375 -0.171875 -1.28125q-0.15625 -0.4375 -0.578125 -0.6875q-0.40625 -0.25 -0.96875 -0.25q-0.90625 0 -1.5625 0.578125q-0.640625 0.5625 -0.640625 2.15625l0 4.53125l-1.40625 0z" fill-rule="nonzero"></path><path fill="#000000" fill-opacity="0.0" d="m133.53755 95.88976l114.23622 0" fill-rule="nonzero"></path><path stroke="#b7b7b7" stroke-width="2.0" stroke-linejoin="round" stroke-linecap="butt" d="m145.53755 95.88976l90.23622 0" fill-rule="evenodd"></path><path fill="#b7b7b7" stroke="#b7b7b7" stroke-width="2.0" stroke-linecap="butt" d="m145.53755 92.586296l-9.076187 3.3034668l9.076187 3.3034668z" fill-rule="evenodd"></path><path fill="#b7b7b7" stroke="#b7b7b7" stroke-width="2.0" stroke-linecap="butt" d="m235.77377 99.19323l9.076187 -3.3034668l-9.076187 -3.3034668z" fill-rule="evenodd"></path><path fill="#000000" fill-opacity="0.0" d="m121.87089 102.36089l137.66931 0l0 32.125984l-137.66931 0z" fill-rule="nonzero"></path><path fill="#b7b7b7" d="m162.85788 114.78388l0 -10.109375l-3.78125 0l0 -1.34375l9.078125 0l0 1.34375l-3.78125 0l0 10.109375l-1.515625 0zm8.2109375 0l-2.546875 -8.296875l1.453125 0l1.328125 4.78125l0.484375 1.78125q0.03125 -0.125 0.4375 -1.703125l1.3125 -4.859375l1.453125 0l1.234375 4.8125l0.421875 1.578125l0.46875 -1.59375l1.421875 -4.796875l1.375 0l-2.59375 8.296875l-1.46875 0l-1.3125 -4.96875l-0.328125 -1.421875l-1.671875 6.390625l-1.46875 0zm9.4921875 -4.15625q0 -2.296875 1.28125 -3.40625q1.078125 -0.921875 2.609375 -0.921875q1.71875 0 2.796875 1.125q1.09375 1.109375 1.09375 3.09375q0 1.59375 -0.484375 2.515625q-0.484375 0.921875 -1.40625 1.4375q-0.90625 0.5 -2.0 0.5q-1.734375 0 -2.8125 -1.109375q-1.078125 -1.125 -1.078125 -3.234375zm1.453125 0q0 1.59375 0.6875 2.390625q0.703125 0.796875 1.75 0.796875q1.046875 0 1.734375 -0.796875q0.703125 -0.796875 0.703125 -2.4375q0 -1.53125 -0.703125 -2.328125q-0.6875 -0.796875 -1.734375 -0.796875q-1.046875 0 -1.75 0.796875q-0.6875 0.78125 -0.6875 2.375zm7.4296875 0.71875l0 -1.421875l4.3125 0l0 1.421875l-4.3125 0zm7.40625 3.4375l-2.546875 -8.296875l1.453125 0l1.328125 4.78125l0.484375 1.78125q0.03125 -0.125 0.4375 -1.703125l1.3125 -4.859375l1.453125 0l1.234375 4.8125l0.421875 1.578125l0.46875 -1.59375l1.421875 -4.796875l1.375 0l-2.59375 8.296875l-1.46875 0l-1.3125 -4.96875l-0.328125 -1.421875l-1.671875 6.390625l-1.46875 0zm15.4296875 -1.03125q-0.78125 0.671875 -1.5 0.953125q-0.71875 0.265625 -1.546875 0.265625q-1.375 0 -2.109375 -0.671875q-0.734375 -0.671875 -0.734375 -1.703125q0 -0.609375 0.28125 -1.109375q0.28125 -0.515625 0.71875 -0.8125q0.453125 -0.3125 1.015625 -0.46875q0.421875 -0.109375 1.25 -0.203125q1.703125 -0.203125 2.515625 -0.484375q0 -0.296875 0 -0.375q0 -0.859375 -0.390625 -1.203125q-0.546875 -0.484375 -1.609375 -0.484375q-0.984375 0 -1.46875 0.359375q-0.46875 0.34375 -0.6875 1.21875l-1.375 -0.1875q0.1875 -0.875 0.609375 -1.421875q0.4375 -0.546875 1.25 -0.828125q0.8125 -0.296875 1.875 -0.296875q1.0625 0 1.71875 0.25q0.671875 0.25 0.984375 0.625q0.3125 0.375 0.4375 0.953125q0.078125 0.359375 0.078125 1.296875l0 1.875q0 1.96875 0.078125 2.484375q0.09375 0.515625 0.359375 1.0l-1.46875 0q-0.21875 -0.4375 -0.28125 -1.03125zm-0.109375 -3.140625q-0.765625 0.3125 -2.296875 0.53125q-0.875 0.125 -1.234375 0.28125q-0.359375 0.15625 -0.5625 0.46875q-0.1875 0.296875 -0.1875 0.65625q0 0.5625 0.421875 0.9375q0.4375 0.375 1.25 0.375q0.8125 0 1.4375 -0.34375q0.640625 -0.359375 0.9375 -0.984375q0.234375 -0.46875 0.234375 -1.40625l0 -0.515625zm3.5390625 7.375l-0.15625 -1.328125q0.453125 0.125 0.796875 0.125q0.46875 0 0.75 -0.15625q0.28125 -0.15625 0.46875 -0.4375q0.125 -0.203125 0.421875 -1.046875q0.046875 -0.109375 0.125 -0.34375l-3.140625 -8.3125l1.515625 0l1.71875 4.796875q0.34375 0.921875 0.609375 1.921875q0.234375 -0.96875 0.578125 -1.890625l1.765625 -4.828125l1.40625 0l-3.15625 8.4375q-0.5 1.375 -0.78125 1.890625q-0.375 0.6875 -0.859375 1.015625q-0.484375 0.328125 -1.15625 0.328125q-0.40625 0 -0.90625 -0.171875z" fill-rule="nonzero"></path><path fill="#b7b7b7" d="m165.18991 133.78389l0 -11.453133l4.296875 0q1.3125 0 2.109375 0.34375q0.796875 0.34375 1.234375 1.078125q0.453125 0.71875 0.453125 1.5q0 0.734375 -0.40625 1.390625q-0.390625 0.640625 -1.1875 1.046875q1.03125 0.296875 1.59375 1.0312576q0.5625 0.734375 0.5625 1.734375q0 0.8125 -0.34375 1.5q-0.34375 0.6875 -0.84375 1.0625q-0.5 0.375 -1.25 0.578125q-0.75 0.1875 -1.84375 0.1875l-4.375 0zm1.515625 -6.6406326l2.484375 0q1.0 0 1.4375 -0.140625q0.578125 -0.171875 0.875 -0.5625q0.296875 -0.40625 0.296875 -1.0q0 -0.578125 -0.28125 -1.0q-0.265625 -0.4375 -0.78125 -0.59375q-0.5 -0.171875 -1.734375 -0.171875l-2.296875 0l0 3.46875zm0 5.2812576l2.859375 0q0.734375 0 1.03125 -0.046875q0.515625 -0.09375 0.859375 -0.3125q0.359375 -0.21875 0.578125 -0.640625q0.234375 -0.421875 0.234375 -0.96875q0 -0.640625 -0.328125 -1.109375q-0.328125 -0.46875 -0.90625 -0.65625q-0.578125 -0.203125 -1.671875 -0.203125l-2.65625 0l0 3.9375zm9.046875 -8.484383l0 -1.609375l1.40625 0l0 1.609375l-1.40625 0zm0 9.843758l0 -8.296883l1.40625 0l0 8.296883l-1.40625 0zm3.5546875 0l0 -8.296883l1.265625 0l0 1.171875q0.90625 -1.359375 2.640625 -1.359375q0.75 0 1.375 0.265625q0.625 0.265625 0.9375 0.703125q0.3125 0.4375 0.4375 1.046875q0.078125 0.390625 0.078125 1.3593826l0 5.109375l-1.40625 0l0 -5.046875q0 -0.8593826 -0.171875 -1.2812576q-0.15625 -0.4375 -0.578125 -0.6875q-0.40625 -0.25 -0.96875 -0.25q-0.90625 0 -1.5625 0.578125q-0.640625 0.5625 -0.640625 2.1562576l0 4.53125l-1.40625 0zm14.2734375 0l0 -1.046875q-0.78125 1.234375 -2.3125 1.234375q-1.0 0 -1.828125 -0.546875q-0.828125 -0.546875 -1.296875 -1.53125q-0.453125 -0.984375 -0.453125 -2.25q0 -1.25 0.40625 -2.2500076q0.421875 -1.015625 1.25 -1.546875q0.828125 -0.546875 1.859375 -0.546875q0.75 0 1.328125 0.3125q0.59375 0.3125 0.953125 0.828125l0 -4.109375l1.40625 0l0 11.453133l-1.3125 0zm-4.4375 -4.140625q0 1.59375 0.671875 2.390625q0.671875 0.78125 1.578125 0.78125q0.921875 0 1.5625 -0.75q0.65625 -0.765625 0.65625 -2.3125q0 -1.703125 -0.65625 -2.5000076q-0.65625 -0.796875 -1.625 -0.796875q-0.9375 0 -1.5625 0.765625q-0.625 0.765625 -0.625 2.4218826zm7.9609375 -5.7031326l0 -1.609375l1.40625 0l0 1.609375l-1.40625 0zm0 9.843758l0 -8.296883l1.40625 0l0 8.296883l-1.40625 0zm3.5546875 0l0 -8.296883l1.265625 0l0 1.171875q0.90625 -1.359375 2.640625 -1.359375q0.75 0 1.375 0.265625q0.625 0.265625 0.9375 0.703125q0.3125 0.4375 0.4375 1.046875q0.078125 0.390625 0.078125 1.3593826l0 5.109375l-1.40625 0l0 -5.046875q0 -0.8593826 -0.171875 -1.2812576q-0.15625 -0.4375 -0.578125 -0.6875q-0.40625 -0.25 -0.96875 -0.25q-0.90625 0 -1.5625 0.578125q-0.640625 0.5625 -0.640625 2.1562576l0 4.53125l-1.40625 0zm8.6328125 0.6875l1.375 0.203125q0.078125 0.640625 0.46875 0.921875q0.53125 0.390625 1.4375 0.390625q0.96875 0 1.5 -0.390625q0.53125 -0.390625 0.71875 -1.09375q0.109375 -0.421875 0.109375 -1.8125q-0.921875 1.09375 -2.296875 1.09375q-1.71875 0 -2.65625 -1.234375q-0.9375 -1.234375 -0.9375 -2.96875q0 -1.1875 0.421875 -2.1875076q0.4375 -1.0 1.25 -1.546875q0.828125 -0.546875 1.921875 -0.546875q1.46875 0 2.421875 1.1875l0 -1.0l1.296875 0l0 7.1718826q0 1.9375 -0.390625 2.75q-0.390625 0.8125 -1.25 1.28125q-0.859375 0.46875 -2.109375 0.46875q-1.484375 0 -2.40625 -0.671875q-0.90625 -0.671875 -0.875 -2.015625zm1.171875 -4.984375q0 1.625 0.640625 2.375q0.65625 0.75 1.625 0.75q0.96875 0 1.625 -0.734375q0.65625 -0.75 0.65625 -2.34375q0 -1.53125 -0.671875 -2.2968826q-0.671875 -0.78125 -1.625 -0.78125q-0.9375 0 -1.59375 0.765625q-0.65625 0.765625 -0.65625 2.2656326z" fill-rule="nonzero"></path><path fill="#000000" fill-opacity="0.0" d="m319.72702 226.35205l64.22046 -121.76377l28.409454 14.992126l-64.22046 121.76377z" fill-rule="nonzero"></path><path fill="#b7b7b7" d="m349.83154 195.89908l-8.940826 -4.7182007l-1.763977 3.344574l-1.1884155 -0.6271515l4.235016 -8.029755l1.1884155 0.6271515l-1.763977 3.344574l8.940796 4.718216l-0.70703125 1.3405914zm3.8304749 -7.2627106l-8.52597 -1.6195221l0.6779175 -1.2853241l4.8481445 1.0567474l1.8013 0.40289307q-0.095947266 -0.08598328 -1.3021545 -1.1818542l-3.6853638 -3.4288635l0.67788696 -1.2853241l4.832062 1.1542511l1.5925293 0.36338806l-1.1908569 -1.1584473l-3.579071 -3.4964447l0.641449 -1.216217l6.1278076 6.166504l-0.68518066 1.2991333l-5.0066833 -1.158081l-1.410614 -0.3733673l4.8719788 4.4613953l-0.68518066 1.2991333zm0.7523804 -10.33577q-2.031372 -1.071991 -2.414795 -2.7230377q-0.3123474 -1.3838806 0.40197754 -2.7382965q0.80181885 -1.5202637 2.2997437 -1.948822q1.4913635 -0.4496765 3.2463684 0.4764557q1.4095154 0.74383545 1.9988708 1.6025238q0.58935547 0.85868835 0.6153259 1.9147644q0.01940918 1.0349426 -0.49084473 2.0023804q-0.80908203 1.5340881 -2.2931824 1.9699402q-1.4979248 0.4285736 -3.3634644 -0.5559082zm0.67788696 -1.2853241q1.4095459 0.74383545 2.435028 0.50764465q1.0327759 -0.25001526 1.5211487 -1.1759949q0.4883728 -0.92596436 0.1043396 -1.9059906q-0.3767395 -0.99383545 -1.8277283 -1.759552q-1.354248 -0.71466064 -2.387024 -0.4646454q-1.0254822 0.2361908 -1.513855 1.1621704q-0.48840332 0.9259796 -0.1116333 1.9198151q0.37020874 0.97273254 1.7797241 1.7165527zm4.101715 -6.2362213l-1.2575378 -0.66360474l2.0118408 -3.8144836l1.2575073 0.66362l-2.0118103 3.8144684zm6.4952393 -4.9466095l-8.52597 -1.6195374l0.67788696 -1.2853088l4.848175 1.0567474l1.8013 0.40289307q-0.09597778 -0.08598328 -1.3021545 -1.1818542l-3.6853638 -3.4288788l0.67788696 -1.2853088l4.832062 1.1542511l1.5925293 0.3633728l-1.1908569 -1.158432l-3.579071 -3.49646l0.641449 -1.2162018l6.1278076 6.1664886l-0.68518066 1.2991333l-5.006714 -1.1580658l-1.4105835 -0.37338257l4.8719788 4.4614105l-0.68518066 1.2991333zm6.2860413 -14.129105q0.22976685 1.0046082 0.14318848 1.7716064q-0.100372314 0.75971985 -0.48669434 1.492218q-0.6414795 1.2162018 -1.5782776 1.5522003q-0.9367981 0.33598328 -1.8488464 -0.14530945q-0.5389404 -0.28440857 -0.84991455 -0.7665405q-0.3248291 -0.4894104 -0.38330078 -1.0149536q-0.064971924 -0.5466461 0.05923462 -1.1171112q0.100097656 -0.42419434 0.40350342 -1.2004395q0.61486816 -1.6012421 0.7451782 -2.4511719q-0.26257324 -0.13856506 -0.33166504 -0.17501831q-0.7600403 -0.40109253 -1.2462769 -0.21600342q-0.6835022 0.25764465 -1.1791687 1.1974487q-0.45922852 0.870697 -0.3673401 1.4668579q0.08532715 0.5750427 0.7571411 1.1769104l-0.8072815 1.1287079q-0.68640137 -0.574234 -0.9732361 -1.2026215q-0.27957153 -0.6422119 -0.14926147 -1.4921417q0.116485596 -0.8572235 0.6121521 -1.7970276q0.4956665 -0.9397888 1.0229187 -1.4035797q0.5345154 -0.4776001 1.0119629 -0.57899475q0.4774475 -0.10139465 1.0470581 0.057861328q0.35427856 0.09861755 1.1834106 0.53616333l1.6582642 0.8751068q1.7411804 0.9188385 2.2336426 1.0903931q0.49975586 0.15771484 1.052063 0.14883423l-0.6852112 1.2991333q-0.48895264 -0.010696411 -1.0432434 -0.23252869zm-2.8286133 -1.3690338q-0.08078003 0.8230591 -0.6016846 2.2795563q-0.29763794 0.8323059 -0.3270874 1.2230988q-0.02947998 0.39079285 0.15216064 0.7163086q0.17507935 0.30439758 0.49291992 0.47213745q0.49746704 0.26252747 1.02594 0.06439209q0.5357361 -0.21195984 0.9147949 -0.93063354q0.37902832 -0.7186737 0.36657715 -1.4319305q-0.018981934 -0.73435974 -0.43322754 -1.2886505q-0.30523682 -0.42608643 -1.1343689 -0.8636322l-0.45602417 -0.24064636zm8.173523 0.31167603l-1.2474976 -0.48165894q0.32192993 -0.342453 0.4822998 -0.64649963q0.21865845 -0.41462708 0.21170044 -0.73631287q-0.0069885254 -0.32170105 -0.16827393 -0.61880493q-0.12130737 -0.20536804 -0.7290344 -0.8617554q-0.07485962 -0.09249878 -0.24569702 -0.2709961l-8.816772 -1.1016388l0.70703125 -1.3406067l5.04422 0.7185211q0.9756775 0.12620544 1.9840088 0.3579712q-0.7474365 -0.6594391 -1.4024048 -1.393753l-3.4463196 -3.8150787l0.65600586 -1.2438507l5.9897766 6.7296753q0.9827881 1.0839844 1.3076172 1.57341q0.43310547 0.6525574 0.49731445 1.2341309q0.0642395 0.58158875 -0.24920654 1.1758728q-0.18951416 0.35932922 -0.57476807 0.7213745z" fill-rule="nonzero"></path><path fill="#b7b7b7" d="m352.78574 231.02574l-10.129211 -5.345352l2.004547 -3.8006592q0.61227417 -1.1609192 1.2880554 -1.7053375q0.67575073 -0.54441833 1.5293274 -0.5886383q0.8470764 -0.06535339 1.5380249 0.29927063q0.6494751 0.34274292 1.0403442 1.0083618q0.38433838 0.64450073 0.3718872 1.5389557q0.74365234 -0.77360535 1.6555481 -0.9283905q0.91189575 -0.15480042 1.7962952 0.31192017q0.7185974 0.37919617 1.1662598 1.0041199q0.44766235 0.6249237 0.546051 1.2422028q0.09841919 0.61727905 -0.07183838 1.3754578q-0.18405151 0.75090027 -0.6943054 1.718338l-2.040985 3.869751zm-5.1659546 -4.4398804l1.1589966 -2.197464q0.4664917 -0.8845215 0.54623413 -1.3371277q0.1177063 -0.591568 -0.08929443 -1.0364685q-0.22079468 -0.4521942 -0.74591064 -0.7293091q-0.5112915 -0.26982117 -1.0155945 -0.21794128q-0.51086426 0.030761719 -0.8895874 0.4139099q-0.3852539 0.3620453 -0.9611206 1.4538574l-1.0715027 2.0316315l3.0677795 1.6189117zm4.6707764 2.4648438l1.3339233 -2.5291595q0.34259033 -0.64956665 0.43963623 -0.93403625q0.15762329 -0.49983215 0.12454224 -0.90597534q-0.025817871 -0.41996765 -0.296875 -0.8103485q-0.26376343 -0.40420532 -0.7474365 -0.6594391q-0.56655884 -0.29899597 -1.1342163 -0.22753906q-0.56762695 0.07147217 -1.0031738 0.49531555q-0.44934082 0.41656494 -0.9595947 1.3840027l-1.2391663 2.3494873l3.4823608 1.8376923zm-3.2831726 -11.961899l-1.4233398 -0.7511139l0.6560364 -1.2438507l1.4233398 0.75112915l-0.6560364 1.2438354zm8.705872 4.5942383l-7.337799 -3.872284l0.65600586 -1.2438507l7.3378296 3.872284l-0.6560364 1.2438507zm1.6582947 -3.144165l-7.337799 -3.8722992l0.5904236 -1.119461l1.0364075 0.54693604q-0.77944946 -1.4360352 0.029632568 -2.9701233q0.34988403 -0.66337585 0.8763733 -1.0922394q0.52648926 -0.42884827 1.0592041 -0.5010681q0.53271484 -0.07221985 1.1299744 0.101623535q0.38189697 0.113204956 1.238678 0.56533813l4.5187683 2.3846283l-0.6560364 1.2438507l-4.4634705 -2.3554688q-0.7600403 -0.40107727 -1.2133484 -0.44595337q-0.45980835 -0.065979004 -0.87771606 0.19050598q-0.41064453 0.24264526 -0.67303467 0.7401886q-0.42279053 0.80158997 -0.21762085 1.6518707q0.1986084 0.82917786 1.6081238 1.5730133l4.007477 2.1148071l-0.6560364 1.2438507zm6.658722 -12.625092l-0.9258728 -0.48858643q0.7272339 1.2671204 0.012878418 2.6215363q-0.4664917 0.8845215 -1.3364868 1.3617706q-0.8699951 0.4772644 -1.959259 0.43244934q-1.0819702 -0.058624268 -2.201294 -0.64930725q-1.1055298 -0.58340454 -1.800415 -1.4094543q-0.701416 -0.8471527 -0.7849121 -1.827591q-0.097351074 -0.98773193 0.38375854 -1.8998871q0.34988403 -0.6633911 0.89593506 -1.0289001q0.55337524 -0.3793335 1.177063 -0.45655823l-3.634369 -1.9179077l0.6560364 -1.2438507l10.129211 5.3453674l-0.61227417 1.1609192zm-5.732147 1.9925385q1.4095154 0.74383545 2.4277344 0.5214691q1.004364 -0.22966003 1.4271545 -1.0312653q0.4300537 -0.81539917 0.06561279 -1.7320862q-0.37097168 -0.9377899 -1.7390442 -1.6597443q-1.5062561 -0.7948761 -2.5171814 -0.5863342q-1.0108948 0.20855713 -1.4628296 1.0654297q-0.4373474 0.8292389 -0.05178833 1.7393799q0.38552856 0.91015625 1.8503418 1.6831512zm-1.3300171 -9.703308l-1.4233398 -0.75112915l0.65600586 -1.2438507l1.4233398 0.75112915l-0.65600586 1.2438507zm8.705872 4.5942383l-7.3378296 -3.872284l0.6560364 -1.2438507l7.3378296 3.872284l-0.6560364 1.2438507zm1.6582947 -3.1441803l-7.337799 -3.872284l0.5904236 -1.119461l1.0364075 0.5469208q-0.77948 -1.4360352 0.029632568 -2.970108q0.34988403 -0.6633911 0.8763733 -1.0922394q0.52648926 -0.42884827 1.0592041 -0.5010681q0.53271484 -0.07223511 1.1299744 0.10160828q0.38189697 0.113204956 1.238678 0.56533813l4.5187683 2.3846283l-0.6560364 1.2438507l-4.463501 -2.3554535q-0.7600403 -0.40109253 -1.2133179 -0.44595337q-0.45980835 -0.065979004 -0.87771606 0.19049072q-0.41064453 0.24266052 -0.67303467 0.74020386q-0.42279053 0.80158997 -0.21765137 1.6518707q0.19863892 0.8291626 1.6081543 1.572998l4.007477 2.1148071l-0.6560364 1.2438507zm4.635315 -7.314987l0.82110596 -1.1214142q0.60302734 0.22988892 1.0339966 0.015640259q0.59329224 -0.28759766 1.0160828 -1.0891876q0.4519348 -0.85687256 0.35427856 -1.509079q-0.09762573 -0.6522064 -0.63201904 -1.146225q-0.32208252 -0.29364014 -1.5519409 -0.9426575q0.53723145 1.325882 -0.10421753 2.5420837q-0.80178833 1.5202637 -2.330841 1.773407q-1.5290527 0.25312805 -3.0629272 -0.55633545q-1.0502625 -0.55422974 -1.737854 -1.394104q-0.68029785 -0.8536835 -0.7849121 -1.827591q-0.097351074 -0.9877167 0.41290283 -1.9551697q0.68518066 -1.2991333 2.1800537 -1.5879517l-0.8843994 -0.46672058l0.605011 -1.14711l6.342865 3.347229q1.7135315 0.90426636 2.249878 1.6289825q0.53634644 0.72473145 0.5500183 1.7036285q0.013641357 0.97891235 -0.5694885 2.084549q-0.69247437 1.3129578 -1.7167358 1.8147888q-1.0169983 0.48802185 -2.190857 -0.1667633zm-3.8615112 -3.3628387q1.4371643 0.75842285 2.3993225 0.5418091q0.9694519 -0.23042297 1.4213867 -1.0872955q0.4519348 -0.85687256 0.10858154 -1.7800903q-0.35714722 -0.9304962 -1.7666626 -1.6743317q-1.354248 -0.71466064 -2.344818 -0.47769165q-1.0043945 0.22966003 -1.4490356 1.0727081q-0.4373474 0.8292389 -0.06637573 1.7670288q0.3710022 0.9377899 1.6976013 1.6378632zm7.696289 -5.381668l-1.4233704 -0.75112915l0.75079346 -1.4235077l1.4233398 0.7511139q0.7876892 0.41567993 1.1117554 0.94003296q0.3378601 0.5316467 0.2796936 1.278305l-0.7073364 0.06840515q0.03173828 -0.49560547 -0.20516968 -0.850296q-0.22958374 -0.36849976 -0.8579712 -0.71777344l-0.37173462 0.70484924zm4.074646 -7.7256927l-10.129211 -5.345352l2.368988 -4.491684q0.71435547 -1.3544159 1.3624878 -1.9134216q0.63430786 -0.5662842 1.5439148 -0.61628723q0.91690063 -0.063812256 1.7598572 0.38102722q1.0778809 0.5688019 1.4523621 1.66745q0.36791992 1.0775299 -0.2112732 2.6445923q0.5468445 -0.4004364 0.94137573 -0.54559326q0.84506226 -0.29605103 1.9235535 -0.39826965l3.6968079 -0.31054688l-0.8892822 1.6861115l-2.82135 0.22485352q-1.2254944 0.112976074 -1.9132385 0.24472046q-0.68048096 0.11791992 -1.0343018 0.31987q-0.3465271 0.18814087 -0.5832825 0.46955872q-0.17190552 0.19195557 -0.44888306 0.71713257l-0.81640625 1.5479126l4.504944 2.3773346l-0.70706177 1.3405914zm-4.958679 -4.33049l1.5161743 -2.8746796q0.4883728 -0.9259796 0.5784302 -1.5321503q0.08352661 -0.62727356 -0.1925354 -1.1086273q-0.2826233 -0.5024872 -0.76626587 -0.75772095q-0.7185974 -0.37919617 -1.4515991 -0.09466553q-0.7468262 0.27723694 -1.3372498 1.396698l-1.6911011 3.2063751l3.3441467 1.7647705zm6.330658 -7.1800385q-2.031372 -1.071991 -2.414795 -2.7230377q-0.3123474 -1.3838654 0.40197754 -2.7382812q0.80181885 -1.5202637 2.2997437 -1.9488373q1.491394 -0.4496765 3.2463684 0.47647095q1.4095459 0.7438202 1.9988708 1.6025238q0.58935547 0.85868835 0.6153259 1.9147491q0.01940918 1.0349579 -0.4908142 2.0023956q-0.80911255 1.5340729 -2.293213 1.9699249q-1.4979248 0.4285736 -3.3634644 -0.5559082zm0.67788696 -1.2853088q1.4095459 0.7438202 2.435028 0.5076294q1.0327759 -0.25 1.5211487 -1.1759796q0.4883728 -0.9259796 0.1043396 -1.9060059q-0.3767395 -0.99383545 -1.8277283 -1.7595367q-1.354248 -0.71466064 -2.387024 -0.4646454q-1.0254822 0.2361908 -1.513855 1.1621552q-0.4883728 0.9259796 -0.1116333 1.9198303q0.37020874 0.9727173 1.7797241 1.7165527zm9.933624 -9.925171l-1.0778809 -0.5688019q0.79177856 1.5131836 0.01184082 2.9919891q-0.34259033 0.64956665 -0.89019775 1.0849457q-0.5403137 0.42155457 -1.0592041 0.5010681q-0.53271484 0.07223511 -1.1299744 -0.10160828q-0.4095459 -0.12779236 -1.1972046 -0.5434723l-4.546417 -2.3992004l0.6560364 -1.2438507l4.062744 2.1439667q0.98114014 0.5177765 1.3492432 0.62368774q0.56307983 0.13813782 1.0362549 -0.08917236q0.48046875 -0.24111938 0.7720337 -0.7939453q0.29885864 -0.56663513 0.2776184 -1.1962128q-0.027801514 -0.65068054 -0.42321777 -1.1066895q-0.38815308 -0.46983337 -1.3278198 -0.96572876l-3.9245605 -2.071045l0.6560364 -1.2438507l7.337799 3.872284l-0.5831299 1.1056366zm1.9239197 -6.3607635l1.2002869 0.40371704q-0.16644287 0.5835266 -0.38513184 0.9981384q-0.35717773 0.6772156 -0.761261 0.940979q-0.4179077 0.256485 -0.8435669 0.22619629q-0.43948364 -0.037582397 -1.5588074 -0.6282654l-4.214752 -2.2241974l-0.4810791 0.91215515l-0.9673157 -0.5104675l0.4810791 -0.91215515l-1.8240967 -0.9626007l-0.09017944 -1.6376495l2.5703125 1.3563995l0.6560364 -1.2438507l0.9673157 0.5104675l-0.6560364 1.2438507l4.283844 2.260666q0.5389404 0.2843933 0.7200928 0.30932617q0.18847656 0.011123657 0.36538696 -0.08985901q0.16308594 -0.10827637 0.3088684 -0.38468933q0.10934448 -0.20730591 0.2290039 -0.568161zm-6.9414673 -5.2266693l-1.4233398 -0.75112915l0.6560364 -1.2438507l1.4233398 0.75112915l-0.6560364 1.2438507zm8.705902 4.5942383l-7.3378296 -3.872284l0.6560364 -1.2438507l7.3378296 3.872284l-0.6560364 1.2438507zm1.6582947 -3.1441803l-7.3378296 -3.872284l0.5904236 -1.119461l1.036438 0.5469208q-0.77948 -1.4360352 0.029632568 -2.970108q0.34988403 -0.6633911 0.8763733 -1.0922394q0.52648926 -0.42884827 1.0592041 -0.5010834q0.53271484 -0.07221985 1.1299438 0.101623535q0.3819275 0.113204956 1.2387085 0.56533813l4.5187683 2.3846283l-0.6560364 1.2438507l-4.463501 -2.3554535q-0.7600403 -0.40109253 -1.2133179 -0.44595337q-0.45983887 -0.065979004 -0.8777466 0.19049072q-0.410614 0.24266052 -0.67303467 0.7401886q-0.42276 0.8016052 -0.21762085 1.651886q0.19863892 0.8291626 1.6081543 1.572998l4.007477 2.1148071l-0.6560364 1.2438507zm4.635315 -7.3150024l0.82110596 -1.1213989q0.60302734 0.22988892 1.0339966 0.015640259q0.59329224 -0.28759766 1.0160828 -1.0891876q0.4519043 -0.85687256 0.35427856 -1.509079q-0.09762573 -0.6522064 -0.63201904 -1.146225q-0.32208252 -0.29364014 -1.5519714 -0.9426575q0.53726196 1.325882 -0.10418701 2.5420837q-0.80181885 1.5202637 -2.330841 1.7733917q-1.5290527 0.2531433 -3.0629578 -0.5563202q-1.0502319 -0.55422974 -1.7378235 -1.394104q-0.68029785 -0.8536835 -0.7849426 -1.827591q-0.09732056 -0.98773193 0.41293335 -1.9551697q0.68518066 -1.2991257 2.1800537 -1.5879593l-0.8843994 -0.46671295l0.605011 -1.14711l6.3428345 3.347229q1.713562 0.90426636 2.2499084 1.6289825q0.53634644 0.72473145 0.5499878 1.7036285q0.013671875 0.9788971 -0.569458 2.084549q-0.69247437 1.3129578 -1.7167664 1.8147888q-1.0169678 0.48802185 -2.1908264 -0.16677856zm-3.8615112 -3.3628235q1.4371643 0.7584076 2.3993225 0.5418091q0.9694519 -0.23042297 1.4213867 -1.0872955q0.4519348 -0.8568878 0.10858154 -1.7800903q-0.35714722 -0.9304962 -1.7666931 -1.6743317q-1.354248 -0.714653 -2.3447876 -0.47769928q-1.0043945 0.22966766 -1.4490356 1.0727158q-0.4373474 0.8292389 -0.06637573 1.7670288q0.37097168 0.9377899 1.6976013 1.6378632z" fill-rule="nonzero"></path><path fill="#000000" fill-opacity="0.0" d="m297.2672 243.01674l62.80316 -122.77167" fill-rule="nonzero"></path><path stroke="#b7b7b7" stroke-width="2.0" stroke-linejoin="round" stroke-linecap="butt" d="m302.7322 232.33339l51.87314 -101.40497" fill-rule="evenodd"></path><path fill="#b7b7b7" stroke="#b7b7b7" stroke-width="2.0" stroke-linecap="butt" d="m299.7912 230.82893l-1.1924438 9.584793l7.074463 -6.575882z" fill-rule="evenodd"></path><path fill="#b7b7b7" stroke="#b7b7b7" stroke-width="2.0" stroke-linecap="butt" d="m357.5464 132.43288l1.1924438 -9.584801l-7.074463 6.5758896z" fill-rule="evenodd"></path><path fill="#000000" fill-opacity="0.0" d="m253.5848 229.67683l62.803146 -122.77165" fill-rule="nonzero"></path><path stroke="#000000" stroke-width="2.0" stroke-linejoin="round" stroke-linecap="butt" d="m253.5848 229.67683l57.33815 -112.08831" fill-rule="evenodd"></path><path fill="#000000" stroke="#000000" stroke-width="2.0" stroke-linecap="butt" d="m313.86395 119.09298l1.1924438 -9.584793l-7.074463 6.575882z" fill-rule="evenodd"></path><path fill="#000000" fill-opacity="0.0" d="m284.98538 231.59023l62.80316 -122.77165" fill-rule="nonzero"></path><path stroke="#000000" stroke-width="2.0" stroke-linejoin="round" stroke-linecap="butt" d="m290.45038 220.90689l57.338165 -112.08832" fill-rule="evenodd"></path><path fill="#000000" stroke="#000000" stroke-width="2.0" stroke-linecap="butt" d="m287.50937 219.40244l-1.1924438 9.584793l7.074463 -6.575897z" fill-rule="evenodd"></path><path fill="#000000" fill-opacity="0.0" d="m223.38582 227.0869l83.52754 -158.3937l28.409454 14.992126l-83.52756 158.3937z" fill-rule="nonzero"></path><path fill="#000000" d="m262.11453 192.73546l0.55996704 -1.3298645q0.803772 0.318161 1.4761658 0.24897766q0.65859985 -0.07646179 1.3270264 -0.6070862q0.65460205 -0.53790283 1.1065063 -1.3948059q0.4081421 -0.77397156 0.49316406 -1.4711304q0.07846069 -0.718277 -0.16268921 -1.198883q-0.24771118 -0.50172424 -0.7175293 -0.7496643q-0.4836731 -0.25524902 -0.97491455 -0.16113281q-0.5050659 0.08682251 -1.0890503 0.59132385q-0.3633728 0.32058716 -1.4311523 1.5414886q-1.081604 1.2136078 -1.6706238 1.6271362q-0.7659302 0.51449585 -1.5081787 0.5821533q-0.756073 0.06034851 -1.460846 -0.3115692q-0.76000977 -0.40107727 -1.1973877 -1.1795654q-0.4439087 -0.7996063 -0.35205078 -1.8111725q0.099121094 -1.0253906 0.63845825 -2.0481415q0.59762573 -1.1333313 1.4226379 -1.793335q0.8111572 -0.66729736 1.7564392 -0.7514801q0.9525757 -0.09799194 1.8588257 0.32725525l-0.5810852 1.3363953q-1.0118103 -0.39260864 -1.8088684 -0.05354309q-0.81088257 0.3317871 -1.4303894 1.5065613q-0.64138794 1.2162476 -0.49069214 2.0024567q0.15066528 0.78619385 0.7863159 1.1216431q0.5389404 0.28440857 1.1022949 0.087020874q0.54956055 -0.2046814 1.7826843 -1.6386566q1.240448 -1.4477997 1.8374939 -1.91008q0.867218 -0.6730652 1.7215271 -0.75224304q0.84780884 -0.10029602 1.6631165 0.3299713q0.80148315 0.42295837 1.2722778 1.2720795q0.47805786 0.83529663 0.4196167 1.9174957q-0.058410645 1.0822144 -0.6268921 2.1602478q-0.7288513 1.3820953 -1.6179199 2.0966187q-0.90289307 0.7072449 -1.988617 0.8233032q-1.0784607 0.10223389 -2.115631 -0.40977478zm8.68222 -14.286819l0.829834 -1.2051239q0.9727783 0.9020386 1.1573486 2.0594482q0.1918335 1.1436005 -0.47869873 2.4151306q-0.8527527 1.6170654 -2.3433228 2.0318298q-1.4905701 0.41477966 -3.2731934 -0.52593994q-1.8517456 -0.9771881 -2.3714294 -2.4704742q-0.51968384 -1.4933014 0.28201294 -3.0136108q0.772583 -1.4650269 2.2696838 -1.8586731q1.4905701 -0.41477966 3.3008423 0.54052734q0.11053467 0.05833435 0.33163452 0.17501831l-2.8862 5.473114q1.2525024 0.57263184 2.2226868 0.30725098q0.96365356 -0.28648376 1.4446716 -1.1986694q0.36444092 -0.6910553 0.2602234 -1.3643951q-0.10418701 -0.67333984 -0.74609375 -1.3654327zm-4.167633 3.0125122l2.1573792 -4.0910187q-0.9696045 -0.40567017 -1.6296997 -0.25933838q-1.0319824 0.21510315 -1.5275879 1.1549225q-0.4519043 0.8569031 -0.184906 1.7574921q0.26046753 0.8794708 1.1848145 1.4379425zm8.021118 -4.5918884l-10.129211 -5.3453674l0.6559448 -1.2438812l10.129242 5.345352l-0.65597534 1.2438965zm1.9553528 -9.435959l0.829834 -1.2051392q0.97280884 0.90205383 1.1573486 2.0594635q0.1918335 1.1436005 -0.47869873 2.4151306q-0.8527527 1.6170654 -2.3433228 2.0318298q-1.4905701 0.41477966 -3.2731934 -0.52593994q-1.8517151 -0.9771881 -2.3714294 -2.4704895q-0.51968384 -1.4932861 0.28204346 -3.0135956q0.7725525 -1.4650269 2.2696533 -1.8586884q1.4905701 -0.4147644 3.3008423 0.5405426q0.110565186 0.05833435 0.33166504 0.17501831l-2.8862 5.473114q1.2525024 0.57263184 2.2226562 0.30725098q0.96365356 -0.28649902 1.4446716 -1.1986847q0.36444092 -0.69104004 0.2602234 -1.3643799q-0.10418701 -0.67333984 -0.74609375 -1.3654327zm-4.167633 3.012497l2.1573792 -4.0910034q-0.9696045 -0.40567017 -1.6296997 -0.25933838q-1.0319824 0.21510315 -1.5275879 1.1549225q-0.45187378 0.8569031 -0.184906 1.7574921q0.26046753 0.8794708 1.1848145 1.4379272zm7.8628235 -10.823608l0.81448364 -1.1425629q1.1481934 0.8709259 1.4294739 2.0793915q0.28857422 1.1946411 -0.34552002 2.3970795q-0.7944336 1.506485 -2.263916 1.9147186q-1.4759827 0.38713074 -3.3138733 -0.5827637q-1.188446 -0.62713623 -1.8687744 -1.4808502q-0.68685913 -0.8748169 -0.70632935 -1.90979q-0.012207031 -1.0487976 0.48342896 -1.9886322q0.6340637 -1.2024231 1.6429749 -1.6417084q0.99505615 -0.44657898 2.2237244 -0.063201904l-0.45443726 1.297226q-0.82714844 -0.20683289 -1.4335022 0.0385437q-0.59902954 0.23155212 -0.9270325 0.85350037q-0.49560547 0.9398346 -0.13186646 1.8914642q0.35717773 0.93052673 1.821991 1.7035217q1.4786072 0.7802887 2.4545593 0.57095337q0.9621277 -0.21662903 1.4431763 -1.1288147q0.386261 -0.7325134 0.19915771 -1.4496002q-0.19363403 -0.73820496 -1.0677185 -1.3584747zm4.213745 -4.171875l1.2002563 0.4037323q-0.16641235 0.5835266 -0.3850708 0.99816895q-0.3571167 0.6772156 -0.76119995 0.9410095q-0.4178772 0.256485 -0.8435364 0.22619629q-0.43945312 -0.03756714 -1.5587769 -0.6282501l-4.214752 -2.2241974l-0.48104858 0.91218567l-0.9673157 -0.5104675l0.48104858 -0.91218567l-1.8240967 -0.9626007l-0.090270996 -1.63768l2.5703125 1.3563843l0.6559448 -1.2438812l0.9673462 0.5104675l-0.65597534 1.2438812l4.283844 2.260666q0.5389404 0.2843933 0.7200928 0.30932617q0.18847656 0.011123657 0.36535645 -0.08985901q0.16308594 -0.10827637 0.3088684 -0.3847046q0.109313965 -0.20730591 0.22897339 -0.5681915zm5.448639 -7.618988l-12.199158 -1.4201813l0.7652893 -1.4512177l8.73642 1.2536011q1.052063 0.14881897 1.9425354 0.33605957q-0.7052307 -0.6725006 -1.3740234 -1.4141083l-5.908539 -6.6161346l0.7215576 -1.3682709l8.037445 9.311981l-0.7215271 1.3682709zm-5.3386536 -10.979538l-1.4233398 -0.7511139l0.6559448 -1.2438965l1.4233398 0.75112915l-0.6559448 1.2438812zm8.705872 4.5942383l-7.3378296 -3.872284l0.65597534 -1.2438812l7.337799 3.872284l-0.6559448 1.2438812zm1.9407654 -9.40831l0.829834 -1.2051239q0.97280884 0.9020386 1.1573486 2.0594482q0.1918335 1.1436005 -0.47869873 2.4151306q-0.8527527 1.6170654 -2.3433228 2.0318298q-1.4905701 0.41477966 -3.2731934 -0.52593994q-1.8517151 -0.9771881 -2.3714294 -2.4704742q-0.51968384 -1.4933014 0.28204346 -3.0136108q0.7725525 -1.4650269 2.2696533 -1.8586884q1.4905701 -0.4147644 3.3008423 0.5405426q0.11053467 0.05833435 0.33166504 0.17501831l-2.8862 5.473114q1.2525024 0.57263184 2.2226562 0.30725098q0.96365356 -0.28648376 1.4446716 -1.1986694q0.36444092 -0.6910553 0.2602234 -1.3643951q-0.10418701 -0.67333984 -0.74609375 -1.3654327zm-4.167633 3.0125122l2.1573792 -4.0910187q-0.9696045 -0.40567017 -1.6296997 -0.25933838q-1.0319824 0.21510315 -1.5275879 1.1549225q-0.45187378 0.8569031 -0.184906 1.7574921q0.26046753 0.8794708 1.1848145 1.4379425zm8.7499695 -5.973999l-8.525818 -1.6194534l0.6778259 -1.2853546l4.8480835 1.0567017l1.8013 0.40288544q-0.09597778 -0.08598328 -1.302185 -1.1818619l-3.6854553 -3.428917l0.6778259 -1.2853546l4.8320007 1.154213l1.5924683 0.3633728l-1.1908569 -1.1584549l-3.5791626 -3.4964905l0.64138794 -1.2162476l6.1279297 6.1665726l-0.6850891 1.2991714l-5.0066223 -1.1580353l-1.4105835 -0.3733673l4.8720703 4.4614487l-0.6851196 1.2991714z" fill-rule="nonzero"></path><path fill="#000000" fill-opacity="0.0" d="m247.77461 245.50291l83.52757 -158.3937l28.409454 14.992119l-83.52759 158.39369z" fill-rule="nonzero"></path><path fill="#000000" d="m281.7253 203.56396l0.7069702 -1.3406372l5.8453674 3.0847015q1.533905 0.8094635 2.2499084 1.6289978q0.71603394 0.8195343 0.8088379 2.0168762q0.09283447 1.1973572 -0.679718 2.662384q-0.7507019 1.4235687 -1.7292175 2.073227q-0.9712219 0.63583374 -2.1011658 0.53422546q-1.1299438 -0.10160828 -2.7467651 -0.9548187l-5.8453674 -3.0847015l0.7069702 -1.3406372l5.8453674 3.0847015q1.3128052 0.69277954 2.0723877 0.7932739q0.75302124 0.07939148 1.4118958 -0.33261108q0.65234375 -0.43310547 1.1042175 -1.2900085q0.7798767 -1.478836 0.44454956 -2.450821q-0.3418579 -0.993103 -2.2488708 -1.9994507l-5.8453674 -3.0847015zm9.473511 1.2627106l0.4552002 -1.3321533q0.7972412 0.29704285 1.4458008 0.038604736q0.6419983 -0.27954102 1.0866089 -1.1226196q0.45187378 -0.8569031 0.32504272 -1.4538422q-0.140625 -0.60424805 -0.61047363 -0.8521881q-0.41455078 -0.21876526 -0.8528137 0.009307861q-0.30429077 0.1750946 -1.085083 1.0527649q-1.0670166 1.1859741 -1.6000061 1.5937195q-0.53952026 0.38664246 -1.1275024 0.42970276q-0.58065796 0.029251099 -1.1195984 -0.25515747q-0.49749756 -0.26252747 -0.7954407 -0.70243835q-0.29794312 -0.4399109 -0.37023926 -0.9727478q-0.0680542 -0.4069214 0.056121826 -0.97740173q0.11767578 -0.5915985 0.4165039 -1.1582489q0.45916748 -0.87072754 1.0504456 -1.3890533q0.5913086 -0.5183258 1.1800232 -0.5963135q0.58221436 -0.099105835 1.366394 0.15570068l-0.47555542 1.3037567q-0.61032104 -0.21606445 -1.1394958 0.017028809q-0.5292053 0.233078 -0.9082031 0.95176697q-0.45187378 0.8569031 -0.35845947 1.3832092q0.08685303 0.50520325 0.45999146 0.7020874q0.24871826 0.13127136 0.5223694 0.081329346q0.2736206 -0.049926758 0.57943726 -0.29489136q0.17114258 -0.1570282 0.9009094 -0.93795776q1.0378723 -1.1306763 1.5497437 -1.5319061q0.4980774 -0.40852356 1.0795288 -0.47268677q0.5887146 -0.07800293 1.2243958 0.2574463q0.6218262 0.32815552 0.9778137 0.99302673q0.34942627 0.64375305 0.28903198 1.4952393q-0.053131104 0.83766174 -0.5050049 1.6945648q-0.7579956 1.4373779 -1.7457886 1.8701324q-0.98776245 0.43276978 -2.271698 0.020217896zm6.473877 -12.678436l0.829834 -1.2051392q0.97280884 0.9020386 1.1573486 2.0594635q0.1918335 1.1436005 -0.47869873 2.4151306q-0.85272217 1.6170654 -2.3432922 2.0318298q-1.4905701 0.41477966 -3.2732239 -0.5259552q-1.8517151 -0.9771881 -2.371399 -2.4704742q-0.51971436 -1.4932861 0.28201294 -3.0135956q0.7725525 -1.4650269 2.2696533 -1.8586884q1.4905701 -0.4147644 3.3008423 0.5405426q0.110565186 0.05833435 0.33166504 0.17501831l-2.8862 5.473114q1.2525024 0.57263184 2.2226868 0.30725098q0.96362305 -0.28649902 1.4446716 -1.1986847q0.3644104 -0.69104004 0.2602234 -1.3643799q-0.10421753 -0.67333984 -0.74612427 -1.3654327zm-4.1676025 3.012497l2.1573486 -4.0910187q-0.9696045 -0.4056549 -1.6296997 -0.25932312q-1.0319824 0.21508789 -1.5275879 1.1549225q-0.45187378 0.8569031 -0.18487549 1.7574921q0.26046753 0.8794708 1.1848145 1.4379272zm8.028412 -4.605713l-7.3378296 -3.872284l0.59036255 -1.1194916l1.1054993 0.5833893q-0.5479126 -0.8368225 -0.6071472 -1.3274384q-0.05923462 -0.4906006 0.17398071 -0.9328766q0.3279724 -0.62194824 1.0712891 -1.0600586l0.9210205 1.0337219q-0.5030823 0.31755066 -0.7435913 0.77363586q-0.21136475 0.4008026 -0.13754272 0.8637848q0.06729126 0.44184875 0.436615 0.8134155q0.5539856 0.5573578 1.3416443 0.97302246l3.8416443 2.027298l-0.6559448 1.2438812zm4.055969 -7.6913757l-8.073883 -9.242889l0.7652588 -1.4512024l12.315765 1.1990662l-0.809021 1.5341187l-3.6872864 -0.4441223l-2.2375488 4.243042l2.4847107 2.724594l-0.7579956 1.4373932zm-2.6143188 -5.1250763l1.8147888 -3.4414368l-3.3664246 -0.4161377q-1.5402527 -0.19447327 -2.4794617 -0.3897705q0.8652649 0.70396423 1.6503906 1.559967l2.3807068 2.687378zm7.929596 -11.486237l0.81448364 -1.1425629q1.1481934 0.87094116 1.4294739 2.0794067q0.28857422 1.1946411 -0.34552002 2.3970642q-0.7944336 1.506485 -2.263916 1.9147339q-1.4759827 0.38713074 -3.3138733 -0.5827637q-1.188446 -0.6271515 -1.8687744 -1.4808502q-0.68685913 -0.8748169 -0.70632935 -1.90979q-0.012207031 -1.0487976 0.48342896 -1.9886322q0.6340637 -1.2024231 1.6429749 -1.6417084q0.99505615 -0.44657898 2.2237244 -0.06321716l-0.45443726 1.2972412q-0.82714844 -0.20683289 -1.4335022 0.0385437q-0.59906006 0.23155212 -0.9270325 0.85350037q-0.49560547 0.93981934 -0.13186646 1.8914642q0.35717773 0.9305115 1.821991 1.7035065q1.4786072 0.78030396 2.4545593 0.5709686q0.9621277 -0.21662903 1.4431458 -1.1288147q0.3862915 -0.7325134 0.19918823 -1.4496002q-0.19363403 -0.73820496 -1.0677185 -1.35849zm4.213745 -4.1718597l1.2002563 0.40371704q-0.16641235 0.58354187 -0.3850708 0.99816895q-0.3571167 0.67723083 -0.76119995 0.9410095q-0.4178772 0.256485 -0.8435364 0.22621155q-0.43945312 -0.03756714 -1.5587769 -0.6282654l-4.214752 -2.2241821l-0.48104858 0.91218567l-0.9673157 -0.5104828l0.48104858 -0.91218567l-1.8240967 -0.9626007l-0.090270996 -1.63768l2.5703125 1.3563995l0.6559448 -1.2438965l0.9673157 0.5104675l-0.6559448 1.2438965l4.283844 2.2606506q0.5389404 0.28440857 0.7200928 0.30934143q0.18847656 0.011108398 0.36535645 -0.08987427q0.16308594 -0.10827637 0.3088684 -0.38468933q0.109313965 -0.20732117 0.22897339 -0.5681915zm-6.9415283 -5.2267l-1.4233704 -0.75112915l0.65597534 -1.2438965l1.4233398 0.75112915l-0.6559448 1.2438965zm8.705872 4.594223l-7.3378296 -3.872284l0.65597534 -1.2438812l7.337799 3.872284l-0.6559448 1.2438812zm-2.265503 -4.614151q-2.031372 -1.071991 -2.4148865 -2.7230682q-0.31240845 -1.3839111 0.40185547 -2.7383575q0.8017273 -1.5203094 2.299591 -1.9489136q1.4913025 -0.44970703 3.2463074 0.47644043q1.4095154 0.7438202 1.9989014 1.6025391q0.589386 0.8587036 0.61538696 1.9147797q0.019470215 1.0349884 -0.49072266 2.0024567q-0.8089905 1.5341339 -2.2930298 1.9700165q-1.4978638 0.42858887 -3.3634033 -0.55589294zm0.6777954 -1.2853546q1.4095459 0.74383545 2.4349976 0.5076294q1.0327148 -0.25003052 1.5210571 -1.1760406q0.48831177 -0.92601013 0.10424805 -1.9060516q-0.37680054 -0.9938507 -1.8277588 -1.7595673q-1.354248 -0.7146454 -2.3869934 -0.46461487q-1.0254517 0.23620605 -1.513794 1.1622162q-0.48831177 0.9259949 -0.11151123 1.9198608q0.37023926 0.9727478 1.7797546 1.716568zm7.3965454 -5.1158295l-7.337799 -3.872284l0.59033203 -1.1194916l1.036438 0.5469208q-0.7795105 -1.4360504 0.02947998 -2.9701843q0.34985352 -0.6634064 0.87631226 -1.0922852q0.52645874 -0.42886353 1.0591431 -0.50109863q0.5326843 -0.07221985 1.1299438 0.10160828q0.38189697 0.113204956 1.238678 0.56533813l4.5187683 2.3846283l-0.6559448 1.2438965l-4.463501 -2.3554688q-0.7600403 -0.40107727 -1.2133179 -0.4459381q-0.45980835 -0.065979004 -0.87768555 0.19050598q-0.410614 0.24266052 -0.67300415 0.7402191q-0.4227295 0.8016205 -0.2175293 1.6519165q0.19863892 0.8291931 1.6081848 1.5730286l4.0074463 2.1148071l-0.6559448 1.2438812zm1.6911621 -8.533005l0.4552002 -1.3321533q0.7972412 0.29704285 1.4458008 0.038619995q0.6419983 -0.27955627 1.0866089 -1.1226349q0.45187378 -0.8569031 0.32504272 -1.4538422q-0.140625 -0.6042328 -0.61047363 -0.85217285q-0.4145813 -0.21878052 -0.8528137 0.009307861q-0.30429077 0.1750946 -1.085083 1.0527649q-1.0670166 1.1859589 -1.6000061 1.5937195q-0.53952026 0.38664246 -1.1275024 0.4296875q-0.58065796 0.029251099 -1.1195984 -0.25515747q-0.49749756 -0.26252747 -0.7954407 -0.70243835q-0.29794312 -0.43989563 -0.37026978 -0.97273254q-0.06802368 -0.4069214 0.056152344 -0.97740173q0.11767578 -0.5915985 0.4165039 -1.1582642q0.45916748 -0.8707123 1.0504456 -1.3890381q0.5913086 -0.5183258 1.1800232 -0.59632874q0.58221436 -0.099105835 1.366394 0.15571594l-0.47555542 1.3037567q-0.61032104 -0.21606445 -1.1394958 0.01701355q-0.5292053 0.23309326 -0.9082031 0.9517822q-0.45187378 0.8569031 -0.35845947 1.3832092q0.08685303 0.505188 0.45996094 0.7020874q0.24874878 0.13127136 0.5223999 0.081329346q0.2736206 -0.049942017 0.57943726 -0.29489136q0.17114258 -0.15704346 0.9009094 -0.93795776q1.0378723 -1.1306915 1.5497437 -1.5319061q0.4980774 -0.40852356 1.0794983 -0.47270203q0.5887451 -0.07798767 1.2243958 0.25746155q0.6218567 0.32815552 0.97784424 0.99302673q0.34942627 0.6437378 0.28903198 1.495224q-0.053131104 0.83766174 -0.5050049 1.6945648q-0.7579956 1.4373932 -1.7457886 1.8701477q-0.98776245 0.43275452 -2.271698 0.020202637z" fill-rule="nonzero"></path><path fill="#000000" fill-opacity="0.0" d="m127.9785 217.98032l-52.283463 -113.385826" fill-rule="nonzero"></path><path stroke="#000000" stroke-width="2.0" stroke-linejoin="round" stroke-linecap="butt" d="m127.9785 217.98032l-47.258606 -102.48855" fill-rule="evenodd"></path><path fill="#000000" stroke="#000000" stroke-width="2.0" stroke-linecap="butt" d="m83.719795 114.10848l-6.800453 -6.858864l0.80065155 9.6254425z" fill-rule="evenodd"></path><path fill="#000000" fill-opacity="0.0" d="m70.6179 95.71783l57.511818 125.07087l-29.196854 13.417313l-57.511818 -125.07086z" fill-rule="nonzero"></path><path fill="#000000" d="m66.58898 129.82669l0.29245758 1.5335999q-1.8995438 0.35705566 -3.3162231 -0.36758423q-1.4101448 -0.7104492 -2.1543198 -2.3287964q-0.7768097 -1.689331 -0.5783844 -3.0530167q0.2126236 -1.3702087 1.2500191 -2.5175781q1.0515938 -1.1539001 2.542347 -1.8389664q1.632721 -0.7503128 3.1267395 -0.68026733q1.4940262 0.07004547 2.6409454 0.9186554q1.1676483 0.85627747 1.8008423 2.2332993q0.71806335 1.5615616 0.4125824 2.9916382q-0.30547333 1.4300766 -1.5578003 2.5214462l-0.93901825 -1.219284q0.9726181 -0.87685394 1.1638641 -1.8073425q0.2119751 -0.9228134 -0.27108002 -1.97332q-0.54833984 -1.1924744 -1.5025253 -1.7341461q-0.9399948 -0.5481949 -2.0697708 -0.42451477q-1.1155777 0.11715698 -2.1378021 0.58691406q-1.3345757 0.61330414 -2.1521568 1.4533081q-0.7968559 0.84767914 -0.92168427 1.8852081q-0.10410309 1.0452042 0.33325958 1.9963455q0.5287552 1.1498718 1.5616035 1.6381989q1.0393677 0.50253296 2.4761047 0.186203zm-2.307312 4.5940704l10.406845 -4.782425l0.5875015 1.2776489l-3.7339706 1.7159271q1.4476776 0.4180603 2.0743484 1.7808838q0.3851471 0.8375702 0.33929443 1.5980682q-0.0393219 0.7746887 -0.5039215 1.2977142q-0.45806885 0.53723145 -1.5654831 1.0461426l-4.7845917 2.1987457l-0.58750916 -1.2776489l4.7845917 -2.1987457q0.95124054 -0.4371338 1.2020645 -1.0510864q0.25081635 -0.6139374 -0.10168457 -1.3805237q-0.26111603 -0.5678406 -0.7877426 -0.9276886q-0.52661896 -0.35984802 -1.1356506 -0.33790588q-0.5948334 0.015411377 -1.4750824 0.41992188l-4.131508 1.8986206l-0.5875015 -1.2776489zm6.913269 12.565887q-0.93688965 -0.42926025 -1.4927292 -0.9648285q-0.54164124 -0.54211426 -0.8876114 -1.2944946q-0.57444763 -1.2492523 -0.27075958 -2.1970215q0.30368805 -0.94776917 1.2407303 -1.3783875q0.5537033 -0.25445557 1.1255264 -0.20770264q0.58602905 0.040222168 1.038559 0.31375122q0.47325897 0.28118896 0.850235 0.727005q0.27563477 0.33761597 0.70679474 1.0508575q0.8961029 1.4625549 1.4911118 2.083313q0.2697525 -0.1239624 0.3407364 -0.1565857q0.78086853 -0.35884094 0.9300232 -0.85728455q0.21165466 -0.6991272 -0.23223877 -1.6644592q-0.41125488 -0.89434814 -0.94016266 -1.1843567q-0.50818634 -0.28234863 -1.3946381 -0.115722656l-0.40407562 -1.3275452q0.8733978 -0.19502258 1.5465622 -0.04008484q0.6796951 0.16912842 1.274704 0.7898865q0.6091995 0.6142273 1.053093 1.5795593q0.44389343 0.96533203 0.49089813 1.6659698q0.05353546 0.71481323 -0.15664673 1.1553192q-0.21018982 0.44052124 -0.68328094 0.79548645q-0.29389954 0.22103882 -1.1457596 0.6125183l-1.7037125 0.78292847q-1.7888947 0.8220825 -2.2247772 1.1083679q-0.42935944 0.30049133 -0.7585068 0.7440796l-0.61361694 -1.3344269q0.3061447 -0.3814392 0.81954193 -0.68614197zm2.8080215 -1.4107971q-0.6038132 -0.56510925 -1.4423065 -1.8649902q-0.47914124 -0.7427826 -0.7712555 -1.0040436q-0.2921219 -0.261261 -0.66093445 -0.31532288q-0.3480835 -0.04638672 -0.6746292 0.10366821q-0.511116 0.23487854 -0.6756058 0.774765q-0.15796661 0.55407715 0.18148041 1.2922668q0.33944702 0.73820496 0.91291046 1.1625061q0.5941849 0.43197632 1.2861176 0.4407196q0.52384186 0.017211914 1.3757019 -0.37425232l0.46852112 -0.21531677zm-2.2860947 5.014221l7.538925 -3.4644928l0.5287552 1.1498871l-1.0648193 0.4893341q1.6138077 0.2557373 2.3383942 1.8315125q0.3133316 0.68141174 0.33309174 1.3601685q0.019752502 0.6787567 -0.2472229 1.1453552q-0.2669754 0.46661377 -0.76846313 0.8346405q-0.32230377 0.23408508 -1.2025528 0.6385956l-4.6426163 2.1334991l-0.5875015 -1.2776337l4.585823 -2.1074066q0.78086853 -0.35884094 1.0923996 -0.6911621q0.3322525 -0.324646 0.38316345 -0.81233215q0.05744171 -0.47349548 -0.17756653 -0.98454285q-0.3786087 -0.8233795 -1.178093 -1.1782074q-0.7787552 -0.3471527 -2.2269058 0.31834412l-4.1173096 1.8920898l-0.5875015 -1.2776489zm2.981926 8.130402l0.38988495 1.3340759q-0.549469 0.33848572 -0.6418228 0.81082153q-0.1329956 0.6457825 0.2456131 1.4691467q0.40473175 0.8801575 0.98161316 1.199707q0.57688904 0.31956482 1.2941132 0.19631958q0.42903137 -0.076797485 1.6926193 -0.6574707q-1.3789749 -0.38085938 -1.9534225 -1.6301117q-0.71806335 -1.5615692 0.011878967 -2.9287567q0.7299423 -1.3672028 2.3058777 -2.0914154q1.0790176 -0.49586487 2.16391 -0.5301361q1.0914307 -0.020065308 1.9277954 0.48976135q0.8428879 0.5240326 1.2998352 1.5177612q0.61361694 1.3344269 -0.06720734 2.6962585l0.90865326 -0.41757202l0.5418091 1.1782684l-6.5167007 2.9947357q-1.7605057 0.80903625 -2.6619797 0.793396q-0.90146637 -0.015625 -1.6864243 -0.6006775q-0.7849579 -0.58503723 -1.30719 -1.7207336q-0.6201401 -1.3486176 -0.39478302 -2.4667358q0.23188019 -1.1039276 1.4659271 -1.6366425zm5.0186234 -1.0166016q-1.4765472 0.6785431 -1.8903961 1.573761q-0.4073105 0.90940857 -0.0025863647 1.789566q0.40472412 0.8801575 1.3461838 1.1697388q0.9556503 0.2830658 2.4038086 -0.38243103q1.391365 -0.6394043 1.8063507 -1.5695343q0.42918396 -0.9366455 0.030982971 -1.8026123q-0.39167023 -0.85176086 -1.3615189 -1.1282959q-0.96985626 -0.27653503 -2.3328247 0.34980774zm4.2320404 13.093002l0.45091248 1.3919983q-1.3078156 0.22270203 -2.338379 -0.33546448q-1.0240326 -0.5439606 -1.6245956 -1.8500061q-0.7637558 -1.6609344 -0.18541718 -3.0960388q0.578331 -1.4350891 2.4098206 -2.2767487q1.9024811 -0.8742676 3.4035263 -0.37754822q1.5010452 0.4967041 2.219101 2.0582733q0.69194794 1.5047913 0.09288788 2.9322052q-0.578331 1.4351044 -2.4382172 2.289795q-0.1135788 0.052200317 -0.34074402 0.15660095l-2.585022 -5.621643q-1.2167511 0.64512634 -1.5968094 1.5764008q-0.35933685 0.9389496 0.071495056 1.8759003q0.32639313 0.7097931 0.9240036 1.0370178q0.5976105 0.32722473 1.5374374 0.23925781zm0.1471405 -5.1404114l1.9322357 4.2020416q0.9120712 -0.5223236 1.197815 -1.1351166q0.45757294 -0.94970703 0.013687134 -1.9150391q-0.40473175 -0.8801575 -1.281723 -1.2165527q-0.85626984 -0.32873535 -1.8620148 0.06466675zm3.8372498 11.374268l0.71414185 1.2538452q-0.7416992 0.44403076 -1.0961456 1.0196075q-0.3402481 0.5690613 -0.3262024 1.422409q0.02823639 0.846817 0.43296814 1.7269745q0.3655548 0.79496765 0.8668823 1.2868195q0.5220566 0.49951172 1.050148 0.6007538q0.54881287 0.10890198 1.0315323 -0.1129303q0.49691772 -0.22836304 0.7212982 -0.6753845q0.23858643 -0.4535675 0.19386292 -1.2240143q-0.03313446 -0.48345947 -0.35169983 -2.0738525q-0.3043747 -1.5969086 -0.27386475 -2.3159637q0.05808258 -0.9208832 0.4562683 -1.5509491q0.4123764 -0.63661194 1.1364517 -0.96936035q0.78086853 -0.35884094 1.6647186 -0.2319336q0.90457153 0.13456726 1.6511841 0.8232269q0.7531357 0.70285034 1.2361984 1.7533569q0.5352783 1.1640778 0.55667114 2.2203827q0.035583496 1.0498047 -0.47307587 1.8510132q-0.5021286 0.8154144 -1.3911972 1.2755737l-0.7064667 -1.2745667q0.92741394 -0.5637512 1.143631 -1.4025421q0.23041534 -0.8453064 -0.32444763 -2.0519714q-0.57444763 -1.2492523 -1.2898865 -1.6083221q-0.71543884 -0.35905457 -1.3685226 -0.058929443q-0.55371094 0.25445557 -0.7400665 0.821579q-0.17216492 0.5606079 0.21478271 2.4118958q0.3934784 1.8654938 0.3967514 2.6206055q0.00605011 1.0977631 -0.4512024 1.823761q-0.43653107 0.73368835 -1.2741928 1.1186218q-0.8234558 0.37843323 -1.7836838 0.23503113q-0.9536896 -0.12919617 -1.7766724 -0.8343353q-0.8229828 -0.70513916 -1.3321533 -1.812439q-0.65278625 -1.4196014 -0.678421 -2.5599518q-0.011436462 -1.1468658 0.5574417 -2.0789337q0.5754013 -0.9178772 1.6129684 -1.4290771zm3.6809464 13.801941l-1.0509491 0.70651245q-0.3616333 -0.4872589 -0.5574722 -0.9131317q-0.31986237 -0.6956177 -0.28314972 -1.1767731q0.05091095 -0.48768616 0.3340454 -0.80696106q0.29733276 -0.3257904 1.4473343 -0.8542633l4.330269 -1.9899597l-0.4308319 -0.9369507l0.9938278 -0.45671082l0.43083954 0.9369354l1.8740845 -0.8612213l1.3541718 0.9253235l-2.6407547 1.2135468l0.58750916 1.2776489l-0.99383545 0.45671082l-0.5875015 -1.2776489l-4.4012604 2.022583q-0.5537033 0.25445557 -0.6837692 0.38301086q-0.123535156 0.14274597 -0.15110779 0.34457397q-0.013381958 0.1953125 0.11717224 0.4792328q0.09792328 0.2129364 0.31137848 0.5275421zm2.623375 6.2660522q-0.93688965 -0.429245 -1.4927216 -0.9648285q-0.54164124 -0.542099 -0.887619 -1.2944946q-0.57444763 -1.2492523 -0.27075958 -2.1970062q0.30368805 -0.94776917 1.2407303 -1.3783875q0.55371094 -0.25445557 1.125534 -0.20770264q0.5860214 0.040222168 1.038559 0.31373596q0.47325897 0.28120422 0.850235 0.72702026q0.27563477 0.33761597 0.70679474 1.0508575q0.8961029 1.4625549 1.4911041 2.083313q0.2697525 -0.1239624 0.34074402 -0.1565857q0.78086853 -0.3588562 0.93001556 -0.85728455q0.21165466 -0.6991272 -0.23223877 -1.6644592q-0.41125488 -0.89434814 -0.94016266 -1.184372q-0.5081787 -0.28233337 -1.3946304 -0.1157074l-0.40408325 -1.3275452q0.87340546 -0.19502258 1.5465698 -0.04008484q0.6796951 0.16912842 1.2746964 0.7898865q0.60920715 0.6142273 1.053093 1.5795593q0.44389343 0.96533203 0.49090576 1.6659546q0.05353546 0.7148285 -0.15665436 1.1553345q-0.21018219 0.44050598 -0.6832733 0.79548645q-0.29390717 0.22103882 -1.1457596 0.61250305l-1.7037125 0.7829437q-1.7889023 0.8220825 -2.2247849 1.1083679q-0.4293518 0.30049133 -0.7585068 0.7440796l-0.61361694 -1.3344269q0.3061447 -0.3814392 0.81954193 -0.6861572zm2.8080292 -1.4107819q-0.6038208 -0.5651245 -1.4423141 -1.8649902q-0.47914124 -0.7427826 -0.7712555 -1.0040436q-0.29211426 -0.261261 -0.6609268 -0.31532288q-0.34809113 -0.04638672 -0.67463684 0.10366821q-0.5111084 0.23487854 -0.6756058 0.774765q-0.15795898 0.55407715 0.18148804 1.2922668q0.33944702 0.73820496 0.91290283 1.1625061q0.5941849 0.43197632 1.2861252 0.4407196q0.52384186 0.017211914 1.3757019 -0.37426758l0.46852112 -0.21530151zm0.14336395 7.268173l-1.0509491 0.7064972q-0.36164093 -0.48724365 -0.5574722 -0.9131317q-0.31986237 -0.6956024 -0.28314972 -1.1767731q0.05090332 -0.48768616 0.33403778 -0.8069458q0.29733276 -0.3257904 1.4473419 -0.85427856l4.330269 -1.9899597l-0.43083954 -0.9369354l0.99383545 -0.45671082l0.43083954 0.9369354l1.8740768 -0.8612366l1.3541794 0.9253235l-2.6407547 1.213562l0.5875015 1.2776337l-0.9938278 0.45672607l-0.58750916 -1.2776489l-4.4012527 2.022583q-0.55371094 0.25445557 -0.6837692 0.38301086q-0.123535156 0.14274597 -0.15111542 0.34457397q-0.013374329 0.19529724 0.11717987 0.47921753q0.09791565 0.21295166 0.31137848 0.5275574zm4.2250977 5.8223114l0.45091248 1.3919983q-1.3078156 0.22270203 -2.338379 -0.33546448q-1.0240326 -0.5439606 -1.6245956 -1.8500061q-0.7637558 -1.6609344 -0.18541718 -3.0960236q0.578331 -1.4351044 2.4098282 -2.2767487q1.9024734 -0.87428284 3.4035187 -0.37756348q1.5010452 0.49671936 2.219101 2.0582886q0.69195557 1.504776 0.09289551 2.93219q-0.5783386 1.4351044 -2.4382248 2.2898102q-0.1135788 0.05218506 -0.34074402 0.1565857l-2.585022 -5.621643q-1.2167435 0.64512634 -1.5968094 1.576416q-0.35933685 0.9389496 0.071495056 1.875885q0.32639313 0.7097931 0.9240036 1.0370331q0.5976181 0.32722473 1.5374374 0.23924255zm0.1471405 -5.1404114l1.9322357 4.2020416q0.9120712 -0.5223236 1.197815 -1.1351166q0.45758057 -0.94970703 0.013687134 -1.9150391q-0.40472412 -0.8801575 -1.281723 -1.2165527q-0.85626984 -0.32873535 -1.8620148 0.06466675z" fill-rule="nonzero"></path><path fill="#000000" fill-opacity="0.0" d="m96.30134 229.1693l-52.283466 -113.38583" fill-rule="nonzero"></path><path stroke="#b7b7b7" stroke-width="2.0" stroke-linejoin="round" stroke-linecap="butt" d="m91.276474 218.272l-47.258602 -102.48854" fill-rule="evenodd"></path><path fill="#b7b7b7" stroke="#b7b7b7" stroke-width="2.0" stroke-linecap="butt" d="m88.27657 219.65529l6.800453 6.8588715l-0.80065155 -9.6254425z" fill-rule="evenodd"></path><path fill="#000000" fill-opacity="0.0" d="m38.94073 106.90681l57.511814 125.07087l-29.196854 13.417313l-57.51181 -125.07086z" fill-rule="nonzero"></path><path fill="#b7b7b7" d="m35.117435 155.03902l1.2777824 -0.587204q-0.30958557 -1.0098572 -0.27793503 -1.7638245q0.03817749 -0.7397766 0.51729965 -1.4930267q0.49985123 -0.7455902 1.4610443 -1.2732697l0.82886124 1.1667175q-0.9646187 0.6324463 -1.2776146 1.2233734q-0.4334259 0.8526306 -0.15843964 1.6376495l4.0605164 -1.8659973q-0.20285797 -0.8525543 -0.12714767 -1.8847198q0.060043335 -0.76701355 0.49967575 -1.3817444q0.46035767 -0.60705566 1.2270279 -0.9593811q1.3629723 -0.62635803 2.658718 -0.052490234q0.86818695 0.39204407 1.5769424 1.5967712l0.6104965 -0.2805481l0.34597397 0.75239563l-0.6104965 0.2805481q0.40211487 1.1736755 0.16288757 2.0746307q-0.31053925 1.1572723 -1.4532013 1.8887177l-0.8058548 -1.2288818q0.70025253 -0.45936584 0.92806244 -1.0111542q0.24853516 -0.54411316 0.08908844 -1.2274628l-3.6913795 1.6963654q0.20253372 1.0762482 0.21836853 1.4472809q0.0044136047 0.7201996 -0.209198 1.2654572q-0.19288635 0.55293274 -0.62680817 0.99308777q-0.41319656 0.44781494 -1.0094948 0.72184753q-1.3345757 0.6132965 -2.6206932 0.1725769q-1.2653961 -0.4330597 -1.9565277 -1.749054l-1.2919807 0.5937195l-0.34597397 -0.7523804zm11.201908 -5.147812q-0.45302582 -0.6859894 -1.1381073 -0.90423584q-0.67855453 -0.20405579 -1.3458405 0.1026001q-0.65309143 0.30012512 -0.92349243 0.8714752q-0.27040482 0.5713501 -0.12776184 1.5547485l3.535202 -1.624588zm-8.484936 4.810608q0.4311638 0.7132416 1.2068138 0.941452q0.77565384 0.22822571 1.5991135 -0.15019226q0.6956825 -0.31970215 0.9507446 -0.84962463q0.2692604 -0.536438 0.13347244 -1.7293396l-3.8901443 1.7877045zm1.9245949 6.466812l6.4748917 -5.7784424l0.6070862 1.320221l-3.7896004 3.2031555l-1.4161644 1.1838684q0.1266365 -0.023803711 1.73032 -0.31367493l4.963791 -0.8366394l0.60709 1.3202362l-3.8571663 3.131012l-1.2577057 1.0422668l1.6439896 -0.23960876l4.9526978 -0.7111664l0.57444763 1.2492523l-8.622547 1.1079407l-0.61361694 -1.3344269l3.9665031 -3.2672577l1.1548958 -0.89183044l-6.5052986 1.1495209l-0.6136131 -1.3344269zm7.3832703 13.587997q-0.93688583 -0.42926025 -1.4927254 -0.9648285q-0.5416374 -0.54211426 -0.8876152 -1.2944946q-0.57444763 -1.2492523 -0.27075958 -2.1970215q0.30369186 -0.94776917 1.2407341 -1.3783875q0.5537033 -0.25445557 1.1255302 -0.20770264q0.5860214 0.040222168 1.0385551 0.31373596q0.47325897 0.28120422 0.850235 0.72702026q0.27563477 0.33761597 0.70679474 1.0508575q0.8961029 1.4625549 1.491108 2.083313q0.2697525 -0.1239624 0.34074402 -0.1565857q0.78086853 -0.35884094 0.9300194 -0.85728455q0.21165085 -0.6991272 -0.23224258 -1.6644592q-0.41125107 -0.89434814 -0.94015884 -1.1843567q-0.5081825 -0.28234863 -1.3946381 -0.115722656l-0.40407944 -1.3275452q0.87340164 -0.19502258 1.5465698 -0.04008484q0.6796951 0.16912842 1.2746964 0.7898865q0.60920334 0.6142273 1.0530968 1.5795593q0.44388962 0.96533203 0.49089813 1.6659698q0.05353546 0.71481323 -0.15665054 1.1553192q-0.210186 0.44052124 -0.6832733 0.79548645q-0.29390717 0.22103882 -1.1457634 0.6125183l-1.7037125 0.78292847q-1.7888985 0.8220825 -2.224781 1.1083679q-0.4293518 0.30049133 -0.7585068 0.7440796l-0.61361694 -1.3344269q0.3061447 -0.3814392 0.81954193 -0.68614197zm2.8080254 -1.4107971q-0.603817 -0.56510925 -1.4423103 -1.8649902q-0.47913742 -0.7427826 -0.7712555 -1.0040436q-0.29211426 -0.261261 -0.66093063 -0.31532288q-0.3480873 -0.04638672 -0.674633 0.10366821q-0.5111122 0.23487854 -0.6756058 0.774765q-0.1579628 0.55407715 0.18148422 1.2922668q0.33944702 0.73820496 0.91291046 1.1625061q0.5941849 0.43197632 1.2861176 0.4407196q0.5238457 0.017211914 1.3757019 -0.37425232l0.46852112 -0.21531677zm0.14336395 7.268173l-1.0509491 0.7064972q-0.36163712 -0.48724365 -0.5574722 -0.9131317q-0.31986237 -0.6956024 -0.28314972 -1.1767578q0.05091095 -0.48768616 0.3340454 -0.80696106q0.29732895 -0.3257904 1.4473381 -0.85427856l4.330269 -1.9899597l-0.43083954 -0.9369354l0.99383545 -0.45671082l0.43083572 0.9369354l1.8740845 -0.8612213l1.3541756 0.9253235l-2.6407547 1.2135468l0.5875015 1.2776489l-0.99383163 0.45671082l-0.58750534 -1.2776489l-4.4012566 2.022583q-0.5537071 0.25445557 -0.6837692 0.38301086q-0.123535156 0.14274597 -0.1511116 0.34457397q-0.013378143 0.19529724 0.11717987 0.47921753q0.09791565 0.21295166 0.31137466 0.5275574zm4.4548683 5.4243927l0.41060638 1.3417511q-1.3899002 0.38078308 -2.5198479 -0.13171387q-1.1234169 -0.49829102 -1.6913376 -1.7333527q-0.7115326 -1.5473633 -0.14086533 -2.9617462q0.5913887 -1.4066925 2.4796715 -2.2744446q1.220993 -0.56111145 2.31242 -0.58117676q1.1121521 -0.0124053955 1.9450874 0.60217285q0.8394661 0.6287842 1.2833595 1.5941162q0.5679207 1.2350616 0.30225372 2.3029175q-0.25146484 1.0613403 -1.3035545 1.8027649l-0.7524872 -1.150238q0.66761017 -0.53034973 0.8420563 -1.1607819q0.18096924 -0.61624146 -0.112781525 -1.2550659q-0.44389343 -0.96533203 -1.4202728 -1.2560577q-0.95565414 -0.2830658 -2.460598 0.40852356q-1.519146 0.6981201 -1.9471855 1.5998688q-0.41384506 0.89520264 0.016990662 1.8321381q0.34597778 0.75239563 1.0287743 1.0404816q0.7035217 0.29574585 1.7277107 -0.02015686zm-1.6849136 3.6288147l10.406845 -4.782425l0.5875015 1.2776489l-3.7339668 1.7159271q1.4476776 0.4180603 2.0743484 1.7808838q0.38514328 0.8375702 0.33929443 1.5980682q-0.0393219 0.7746887 -0.5039215 1.2977142q-0.45807266 0.53723145 -1.5654869 1.0461426l-4.7845917 2.1987457l-0.58750534 -1.2776489l4.7845917 -2.1987457q0.95124054 -0.4371338 1.2020569 -1.0510864q0.25082016 -0.6139374 -0.101680756 -1.3805237q-0.26111603 -0.5678406 -0.7877388 -0.9276886q-0.5266228 -0.35984802 -1.1356544 -0.33790588q-0.5948334 0.015411377 -1.4750862 0.41992188l-4.1315002 1.8986206l-0.58750534 -1.2776489zm1.7737007 11.935669q0.8449898 -1.678009 2.2944374 -3.2382812q1.4701767 -1.5526123 3.386856 -2.4334106q1.6895142 -0.77641296 3.4916382 -0.93392944q2.0826492 -0.18325806 4.485161 0.3290863l0.41778564 0.9085388q-1.8682251 -0.17321777 -2.6376724 -0.16352844q-1.1754684 0.024307251 -2.357788 0.25810242q-1.4574623 0.30867004 -2.8062363 0.92848206q-3.407425 1.5658722 -5.8563995 5.2534943l-0.41778183 -0.9085541zm1.4883461 3.2366943l-0.42430878 -0.92274475q4.400795 0.5570221 7.80822 -1.0088501q1.3345795 -0.6132965 2.5113373 -1.5323944q0.9538498 -0.7306671 1.737648 -1.6067352q0.5083389 -0.57751465 1.6008911 -2.1285553l0.42430878 0.92274475q-1.1752853 2.1565247 -2.670433 3.6174164q-1.2994766 1.2506256 -2.9889908 2.0270386q-1.9166794 0.88079834 -4.059223 0.97120667q-2.1218147 0.098083496 -3.9394493 -0.3391266z" fill-rule="nonzero"></path></g></svg>

